<?xml version="1.0" encoding="UTF-8" standalone="no"?>
<!-- Created with Inkscape (http://www.inkscape.org/) -->

<svg
   xmlns:dc="http://purl.org/dc/elements/1.1/"
   xmlns:cc="http://creativecommons.org/ns#"
   xmlns:rdf="http://www.w3.org/1999/02/22-rdf-syntax-ns#"
   xmlns:svg="http://www.w3.org/2000/svg"
   xmlns="http://www.w3.org/2000/svg"
   xmlns:sodipodi="http://sodipodi.sourceforge.net/DTD/sodipodi-0.dtd"
   xmlns:inkscape="http://www.inkscape.org/namespaces/inkscape"
   id="svg3039"
   version="1.1"
   inkscape:version="0.48.3.1 r9886"
   width="379.125"
   height="379.125"
   sodipodi:docname="critter5.svg">
  <metadata
     id="metadata3045">
    <rdf:RDF>
      <cc:Work
         rdf:about="">
        <dc:format>image/svg+xml</dc:format>
        <dc:type
           rdf:resource="http://purl.org/dc/dcmitype/StillImage" />
        <dc:title></dc:title>
      </cc:Work>
    </rdf:RDF>
  </metadata>
  <defs
     id="defs3043" />
  <sodipodi:namedview
     pagecolor="#ffffff"
     bordercolor="#666666"
     borderopacity="1"
     objecttolerance="10"
     gridtolerance="10"
     guidetolerance="10"
     inkscape:pageopacity="0"
     inkscape:pageshadow="2"
     inkscape:window-width="1112"
     inkscape:window-height="847"
     id="namedview3041"
     showgrid="true"
     inkscape:zoom="1"
     inkscape:cx="241.29673"
     inkscape:cy="166.23003"
     inkscape:current-layer="svg3039"
     fit-margin-top="0"
     fit-margin-left="0"
     fit-margin-right="0"
     fit-margin-bottom="0"
     inkscape:snap-nodes="true"
     inkscape:window-x="0"
     inkscape:window-y="0"
     inkscape:window-maximized="0">
    <inkscape:grid
       type="xygrid"
       id="grid3049"
       empspacing="1"
       visible="true"
       enabled="true"
       snapvisiblegridlinesonly="true"
       spacingx="4.200000000000002px"
       originx="34.905775213058px"
       spacingy="4.2px"
       originy="5.840593134506px"
       dotted="false" />
  </sodipodi:namedview>
  <rect
     style="color:#000000;fill:none;stroke:#000000;stroke-width:8.32999992;stroke-linecap:butt;stroke-linejoin:miter;stroke-miterlimit:4;stroke-opacity:1;stroke-dasharray:none;stroke-dashoffset:0;marker:none;visibility:visible;display:inline;overflow:visible;enable-background:accumulate"
     id="UnitRectangle"
     width="2498.9998"
     height="2498.9998"
     x="202.90578"
     y="-2314.7156" />
  <path
     style="color:#000000;fill:#ffa000;fill-opacity:1;stroke:#000000;stroke-width:2;stroke-linecap:butt;stroke-linejoin:miter;stroke-miterlimit:4;stroke-opacity:1;stroke-dasharray:none;stroke-dashoffset:0;marker:none;visibility:visible;display:inline;overflow:visible;enable-background:accumulate"
     d="M 161.36508,320.78551 L 182.36508,320.78551 L 182.36508,278.78551 L 203.36508,278.78551 L 203.36508,257.78551 L 224.36508,257.78551 L 224.36508,215.78551 L 203.36508,215.78551 L 203.36508,236.78551 L 182.36508,236.78551 L 182.36508,215.78551 L 161.36508,215.78551 z"
     id="path5405"
     inkscape:connector-curvature="0" />
  <path
     style="color:#000000;fill:#e05000;fill-opacity:1;stroke:#000000;stroke-width:2;stroke-linecap:butt;stroke-linejoin:miter;stroke-miterlimit:4;stroke-opacity:1;stroke-dasharray:none;stroke-dashoffset:0;marker:none;visibility:visible;display:inline;overflow:visible;enable-background:accumulate"
     d="M 161.36508,215.78551 L 161.36508,203.18551 L 182.36508,203.18551 L 182.36508,186.38551 L 203.36508,186.38551 L 203.36508,203.18551 L 224.36508,203.18551 L 224.36508,215.78551 L 203.36508,215.78551 L 203.36508,236.78551 L 182.36508,236.78551 L 182.36508,215.78551 z"
     id="path5427"
     inkscape:connector-curvature="0"
     sodipodi:nodetypes="ccccccccccccc" />
  <path
     style="color:#000000;fill:#e05000;fill-opacity:1;stroke:#000000;stroke-width:2;stroke-linecap:butt;stroke-linejoin:miter;stroke-miterlimit:4;stroke-opacity:1;stroke-dasharray:none;stroke-dashoffset:0;marker:none;visibility:visible;display:inline;overflow:visible;enable-background:accumulate"
     d="M 203.36508,186.19251 L 224.36508,185.48541 L 224.36508,173.78551 L 245.36508,173.78551 L 245.36508,131.78551 L 266.36508,131.78551 L 265.90578,79.284407 L 244.90578,79.284407 L 245.36508,26.785507 L 140.36508,26.785507 L 140.36508,110.78551 L 161.36508,110.78551 L 161.36508,131.78551 L 140.36508,131.78551 L 140.36508,173.78551 L 161.36508,173.78551 L 161.36508,185.48541 L 182.36508,186.19251 z"
     id="path5429"
     inkscape:connector-curvature="0"
     sodipodi:nodetypes="ccccccccccccccccccc" />
  <path
     style="color:#000000;fill:#ffa000;fill-opacity:1;stroke:#000000;stroke-width:2;stroke-linecap:butt;stroke-linejoin:miter;stroke-miterlimit:4;stroke-opacity:1;stroke-dasharray:none;stroke-dashoffset:0;marker:none;visibility:visible;display:inline;overflow:visible;enable-background:accumulate"
     d="M 182.36508,187.60671 L 182.36508,165.68641 L 161.36508,166.39351 L 161.36508,152.78551 L 182.36508,152.78551 L 182.36508,131.78551 L 161.36508,131.78551 L 161.36508,89.785507 L 224.36508,89.785507 L 224.36508,131.78551 L 203.36508,131.78551 L 203.36508,152.78551 L 224.36508,152.78551 L 224.36508,173.78551 L 203.36508,173.78551 L 203.36508,187.60671 z"
     id="path5431"
     inkscape:connector-curvature="0" />
  <path
     style="color:#000000;fill:#ffa000;fill-opacity:1;stroke:#000000;stroke-width:2;stroke-linecap:butt;stroke-linejoin:miter;stroke-miterlimit:4;stroke-opacity:1;stroke-dasharray:none;stroke-dashoffset:0;marker:none;visibility:visible;display:inline;overflow:visible;enable-background:accumulate"
     d="M 140.36508,47.785507 L 161.36508,47.785507 L 161.36508,68.785507 L 182.36508,68.785507 L 182.36508,47.785507 L 161.36508,47.785507 L 161.36508,26.785507 L 140.36508,26.785507 z"
     id="path5433"
     inkscape:connector-curvature="0" />
  <path
     style="color:#000000;fill:#ffa000;fill-opacity:1;stroke:#000000;stroke-width:2;stroke-linecap:butt;stroke-linejoin:miter;stroke-miterlimit:4;stroke-opacity:1;stroke-dasharray:none;stroke-dashoffset:0;marker:none;visibility:visible;display:inline;overflow:visible;enable-background:accumulate"
     d="M 245.36508,47.785507 L 224.36508,47.785507 L 224.36508,68.785507 L 203.36508,68.785507 L 203.36508,47.785507 L 224.36508,47.785507 L 224.36508,26.785507 L 245.36508,26.785507 z"
     id="path5435"
     inkscape:connector-curvature="0" />
  <path
     style="color:#000000;fill:#ffffff;fill-opacity:1;stroke:#000000;stroke-width:2;stroke-linecap:butt;stroke-linejoin:miter;stroke-miterlimit:4;stroke-opacity:1;stroke-dasharray:none;stroke-dashoffset:0;marker:none;visibility:visible;display:inline;overflow:visible;enable-background:accumulate"
     d="M 140.36508,110.78551 L 140.36508,131.78551 L 119.36508,131.78551 L 119.36508,185.48541 L 140.36508,184.77831 L 140.36508,131.78551 L 161.36508,131.78551 L 161.36508,110.78551 z"
     id="path5437"
     inkscape:connector-curvature="0" />
  <path
     style="color:#000000;fill:#ffa000;fill-opacity:1;stroke:#000000;stroke-width:2;stroke-linecap:butt;stroke-linejoin:miter;stroke-miterlimit:4;stroke-opacity:1;stroke-dasharray:none;stroke-dashoffset:0;marker:none;visibility:visible;display:inline;overflow:visible;enable-background:accumulate"
     d="M 147.53748,173.78551 L 146.90578,205.28441 L 119.36508,205.28441 L 119.36508,224.37631 L 140.36508,224.37631 L 140.36508,205.28441 L 161.36508,205.28441 L 161.36508,173.78551 z"
     id="path5439"
     inkscape:connector-curvature="0"
     sodipodi:nodetypes="ccccccccc" />
  <path
     style="color:#000000;fill:#ffa000;fill-opacity:1;stroke:#000000;stroke-width:2;stroke-linecap:butt;stroke-linejoin:miter;stroke-miterlimit:4;stroke-opacity:1;stroke-dasharray:none;stroke-dashoffset:0;marker:none;visibility:visible;display:inline;overflow:visible;enable-background:accumulate"
     d="M 224.36508,184.77831 L 224.36508,204.57731 L 245.36508,204.57731 L 245.36508,224.18551 L 266.36508,224.37631 L 266.36508,203.18551 L 245.36508,203.18551 L 245.36508,184.77831 z"
     id="path5441"
     inkscape:connector-curvature="0"
     sodipodi:nodetypes="ccccccccc" />
  <path
     style="color:#000000;fill:#ffffff;fill-opacity:1;stroke:#000000;stroke-width:2;stroke-linecap:butt;stroke-linejoin:miter;stroke-miterlimit:4;stroke-opacity:1;stroke-dasharray:none;stroke-dashoffset:0;marker:none;visibility:visible;display:inline;overflow:visible;enable-background:accumulate"
     d="M 266.36508,110.78551 L 287.36508,110.78551 L 287.36508,173.78551 L 266.36508,173.78551 L 266.36508,205.99151 L 287.36508,205.28441 L 287.36508,224.37631 L 266.36508,225.08341 L 266.36508,203.18551 L 245.36508,203.18551 L 245.36508,186.38551 L 224.36508,186.38551 L 224.36508,173.78551 L 245.36508,173.78551 L 245.36508,152.78551 L 266.36508,152.78551 z"
     id="path5443"
     inkscape:connector-curvature="0"
     sodipodi:nodetypes="ccccccccccccccccc" />
  <path
     style="color:#000000;fill:#e05000;fill-opacity:1;fill-rule:nonzero;stroke:#000000;stroke-width:2;stroke-linecap:butt;stroke-linejoin:miter;stroke-miterlimit:4;stroke-opacity:1;stroke-dasharray:none;stroke-dashoffset:0;marker:none;visibility:visible;display:inline;overflow:visible;enable-background:accumulate"
     d="M 161.36508,320.78551 L 161.36508,341.78551 L 182.36508,341.78551 L 182.36508,320.78551 z"
     id="path5456"
     inkscape:connector-curvature="0" />
  <path
     style="color:#000000;fill:#e05000;fill-opacity:1;fill-rule:nonzero;stroke:#000000;stroke-width:2;stroke-linecap:butt;stroke-linejoin:miter;stroke-miterlimit:4;stroke-opacity:1;stroke-dasharray:none;stroke-dashoffset:0;marker:none;visibility:visible;display:inline;overflow:visible;enable-background:accumulate"
     d="M 224.36508,257.78551 L 245.36508,257.78551 L 245.36508,236.78551 L 224.36508,236.78551 z"
     id="path5464"
     inkscape:connector-curvature="0" />
</svg>
