<?xml version="1.0" encoding="UTF-8" standalone="no"?>
<!-- Created with Inkscape (http://www.inkscape.org/) -->

<svg
   xmlns:dc="http://purl.org/dc/elements/1.1/"
   xmlns:cc="http://creativecommons.org/ns#"
   xmlns:rdf="http://www.w3.org/1999/02/22-rdf-syntax-ns#"
   xmlns:svg="http://www.w3.org/2000/svg"
   xmlns="http://www.w3.org/2000/svg"
   xmlns:sodipodi="http://sodipodi.sourceforge.net/DTD/sodipodi-0.dtd"
   xmlns:inkscape="http://www.inkscape.org/namespaces/inkscape"
   id="svg3039"
   version="1.1"
   inkscape:version="0.48.3.1 r9886"
   width="379.125"
   height="379.125"
   sodipodi:docname="critter2.svg">
  <metadata
     id="metadata3045">
    <rdf:RDF>
      <cc:Work
         rdf:about="">
        <dc:format>image/svg+xml</dc:format>
        <dc:type
           rdf:resource="http://purl.org/dc/dcmitype/StillImage" />
        <dc:title></dc:title>
      </cc:Work>
    </rdf:RDF>
  </metadata>
  <defs
     id="defs3043" />
  <sodipodi:namedview
     pagecolor="#ffffff"
     bordercolor="#666666"
     borderopacity="1"
     objecttolerance="10"
     gridtolerance="10"
     guidetolerance="10"
     inkscape:pageopacity="0"
     inkscape:pageshadow="2"
     inkscape:window-width="1112"
     inkscape:window-height="847"
     id="namedview3041"
     showgrid="true"
     inkscape:zoom="0.0625"
     inkscape:cx="1772.668"
     inkscape:cy="2111.038"
     inkscape:current-layer="svg3039"
     fit-margin-top="0"
     fit-margin-left="0"
     fit-margin-right="0"
     fit-margin-bottom="0"
     inkscape:snap-nodes="true"
     inkscape:window-x="0"
     inkscape:window-y="0"
     inkscape:window-maximized="0">
    <inkscape:grid
       type="xygrid"
       id="grid3049"
       empspacing="1"
       visible="true"
       enabled="true"
       snapvisiblegridlinesonly="true"
       spacingx="4.200000000000002px"
       originx="34.905775213058px"
       spacingy="4.2px"
       originy="5.840593134506px"
       dotted="false" />
  </sodipodi:namedview>
  <path
     style="color:#000000;fill:#d4a867;stroke:none;stroke-width:2;stroke-linecap:butt;stroke-linejoin:miter;stroke-miterlimit:4;stroke-opacity:1;stroke-dasharray:none;stroke-dashoffset:0;marker:none;visibility:visible;display:inline;overflow:visible;enable-background:accumulate;fill-opacity:1"
     d="M 160.90578,16.284407 L 244.90578,16.284407 L 244.90578,37.284407 L 286.90578,37.284407 L 286.90578,58.284407 L 307.90578,58.284407 L 307.90578,79.284407 L 328.90578,79.284407 L 328.90578,100.28441 L 349.90578,100.28441 L 349.90578,121.28441 L 370.90578,121.28441 L 370.90578,205.28441 L 349.90578,205.28441 L 349.90578,226.28441 L 223.90578,226.28441 L 223.90578,247.28441 L 181.90578,247.28441 L 181.90578,226.28441 L 55.905775,226.28441 L 55.905775,205.28441 L 34.905775,205.28441 L 34.905775,121.28441 L 55.905775,121.28441 L 55.905775,100.28441 L 76.905775,100.28441 L 76.905775,79.284407 L 97.905775,79.284407 L 97.905775,58.284407 L 118.90578,58.284407 L 118.90578,37.284407 L 160.90578,37.284407 z"
     id="path5062"
     inkscape:connector-curvature="0" />
  <path
     style="color:#000000;fill:#91350d;stroke:none;stroke-width:2;stroke-linecap:butt;stroke-linejoin:miter;stroke-miterlimit:4;stroke-opacity:1;stroke-dasharray:none;stroke-dashoffset:0;marker:none;visibility:visible;display:inline;overflow:visible;enable-background:accumulate;fill-opacity:1"
     d="M 97.905775,226.28441 L 97.905775,289.28441 L 76.905775,289.28441 L 76.905775,226.28441 z"
     id="path5064"
     inkscape:connector-curvature="0" />
  <path
     style="color:#000000;fill:#91350d;stroke:none;stroke-width:2;stroke-linecap:butt;stroke-linejoin:miter;stroke-miterlimit:4;stroke-opacity:1;stroke-dasharray:none;stroke-dashoffset:0;marker:none;visibility:visible;display:inline;overflow:visible;enable-background:accumulate;fill-opacity:1"
     d="M 307.90578,226.28441 L 307.90578,289.28441 L 328.90578,289.28441 L 328.90578,226.28441 z"
     id="path5066"
     inkscape:connector-curvature="0" />
  <path
     style="color:#000000;fill:#a35f38;stroke:none;stroke-width:2;stroke-linecap:butt;stroke-linejoin:miter;stroke-miterlimit:4;stroke-opacity:1;stroke-dasharray:none;stroke-dashoffset:0;marker:none;visibility:visible;display:inline;overflow:visible;enable-background:accumulate;fill-opacity:1"
     d="M 76.905775,247.28441 L 55.905775,247.28441 L 55.905775,310.28441 L 34.905775,310.28441 L 34.905775,352.28441 L 55.905775,352.28441 L 55.905775,331.28441 L 76.905775,331.28441 z"
     id="path5068"
     inkscape:connector-curvature="0" />
  <path
     style="color:#000000;fill:#a35f38;stroke:none;stroke-width:2;stroke-linecap:butt;stroke-linejoin:miter;stroke-miterlimit:4;stroke-opacity:1;stroke-dasharray:none;stroke-dashoffset:0;marker:none;visibility:visible;display:inline;overflow:visible;enable-background:accumulate;fill-opacity:1"
     d="M 328.90578,247.28441 L 349.90578,247.28441 L 349.90578,310.28441 L 370.90578,310.28441 L 370.90578,352.28441 L 349.90578,352.28441 L 349.90578,331.28441 L 328.90578,331.28441 z"
     id="path5070"
     inkscape:connector-curvature="0" />
  <path
     style="color:#000000;fill:#ec9e22;stroke:none;stroke-width:2;stroke-linecap:butt;stroke-linejoin:miter;stroke-miterlimit:4;stroke-opacity:1;stroke-dasharray:none;stroke-dashoffset:0;marker:none;visibility:visible;display:inline;overflow:visible;enable-background:accumulate;fill-opacity:1"
     d="M 139.90578,142.28441 L 265.90578,142.28441 L 265.90578,184.28441 L 286.90578,184.28441 L 286.90578,205.28441 L 328.90578,205.28441 L 328.90578,163.28441 L 349.90578,163.28441 L 349.90578,121.28441 L 328.90578,121.28441 L 328.90578,100.28441 L 307.90578,100.28441 L 307.90578,79.284407 L 286.90578,79.284407 L 286.90578,37.284407 L 118.90578,37.284407 L 118.90578,79.284407 L 97.905775,79.284407 L 97.905775,100.28441 L 76.905775,100.28441 L 76.905775,121.28441 L 55.905775,121.28441 L 55.905775,163.28441 L 76.905775,163.28441 L 76.905775,205.28441 L 118.90578,205.28441 L 118.90578,184.28441 L 139.90578,184.28441 z"
     id="path5072"
     inkscape:connector-curvature="0" />
  <path
     style="color:#000000;fill:#fff9cf;stroke:none;stroke-width:2;stroke-linecap:butt;stroke-linejoin:miter;stroke-miterlimit:4;stroke-opacity:1;stroke-dasharray:none;stroke-dashoffset:0;marker:none;visibility:visible;display:inline;overflow:visible;enable-background:accumulate;fill-opacity:1"
     d="M 265.90578,142.28441 L 265.90578,184.28441 L 244.90578,184.28441 L 244.90578,205.28441 L 160.90578,205.28441 L 160.90578,184.28441 L 139.90578,184.28441 L 139.90578,142.28441 z"
     id="path5074"
     inkscape:connector-curvature="0" />
  <path
     style="color:#000000;fill:#dba58b;stroke:none;stroke-width:2;stroke-linecap:butt;stroke-linejoin:miter;stroke-miterlimit:4;stroke-opacity:1;stroke-dasharray:none;stroke-dashoffset:0;marker:none;visibility:visible;display:inline;overflow:visible;enable-background:accumulate;fill-opacity:1"
     d="M 160.90578,142.28441 L 160.90578,184.28441 L 181.90578,184.28441 L 181.90578,205.28441 L 223.90578,205.28441 L 223.90578,184.28441 L 244.90578,184.28441 L 244.90578,142.28441 z"
     id="path5078"
     inkscape:connector-curvature="0" />
  <path
     style="color:#000000;fill:#8f3920;stroke:none;stroke-width:2;stroke-linecap:butt;stroke-linejoin:miter;stroke-miterlimit:4;stroke-opacity:1;stroke-dasharray:none;stroke-dashoffset:0;marker:none;visibility:visible;display:inline;overflow:visible;enable-background:accumulate;fill-opacity:1"
     d="M 181.90578,142.28441 L 181.90578,184.28441 L 223.90578,184.28441 L 223.90578,142.28441 z"
     id="path5080"
     inkscape:connector-curvature="0" />
  <path
     style="color:#000000;fill:#ab5d36;stroke:none;stroke-width:2;stroke-linecap:butt;stroke-linejoin:miter;stroke-miterlimit:4;stroke-opacity:1;stroke-dasharray:none;stroke-dashoffset:0;marker:none;visibility:visible;display:inline;overflow:visible;enable-background:accumulate;fill-opacity:1"
     d="M 55.905775,226.28441 L 55.905775,184.28441 L 76.905775,184.28441 L 76.905775,205.28441 L 118.90578,205.28441 L 118.90578,226.28441 z"
     id="path5082"
     inkscape:connector-curvature="0" />
  <path
     style="color:#000000;fill:#ab5d36;stroke:none;stroke-width:2;stroke-linecap:butt;stroke-linejoin:miter;stroke-miterlimit:4;stroke-opacity:1;stroke-dasharray:none;stroke-dashoffset:0;marker:none;visibility:visible;display:inline;overflow:visible;enable-background:accumulate;fill-opacity:1"
     d="M 328.90578,184.28441 L 349.90578,184.28441 L 349.90578,226.28441 L 286.90578,226.28441 L 286.90578,205.28441 L 328.90578,205.28441 z"
     id="path5084"
     inkscape:connector-curvature="0" />
  <rect
     style="color:#000000;fill:none;stroke:#000000;stroke-width:15.12000084;stroke-linecap:butt;stroke-linejoin:miter;stroke-miterlimit:4;stroke-opacity:1;stroke-dasharray:none;stroke-dashoffset:0;marker:none;visibility:visible;display:inline;overflow:visible;enable-background:accumulate"
     id="UnitRectangle"
     width="4536"
     height="4536"
     x="202.90578"
     y="-4351.7158" />
  <path
     style="color:#000000;fill:none;stroke:#000000;stroke-width:2;stroke-linecap:butt;stroke-linejoin:miter;stroke-miterlimit:4;stroke-opacity:1;stroke-dasharray:none;stroke-dashoffset:0;marker:none;visibility:visible;display:inline;overflow:visible;enable-background:accumulate"
     d="M 76.905775,247.28441 L 55.905775,247.28441 L 55.905775,310.28441 L 34.905775,310.28441 L 34.905775,352.28441 L 55.905775,352.28441 L 55.905775,331.28441 L 76.905775,331.28441 L 76.905775,289.28441 L 97.905775,289.28441 L 97.905775,226.28441 L 181.90578,226.28441 L 181.90578,247.28441 L 223.90578,247.28441 L 223.90578,226.28441 L 307.90578,226.28441 L 307.90578,289.28441 L 328.90578,289.28441 L 328.90578,331.28441 L 349.90578,331.28441 L 349.90578,352.28441 L 370.90578,352.28441 L 370.90578,310.28441 L 349.90578,310.28441 L 349.90578,247.28441 L 328.90578,247.28441 L 328.90578,226.28441 L 349.90578,226.28441 L 349.90578,205.28441 L 370.90578,205.28441 L 370.90578,121.28441 L 349.90578,121.28441 L 349.90578,100.28441 L 328.90578,100.28441 L 328.90578,79.284407 L 307.90578,79.284407 L 307.90578,58.284407 L 286.90578,58.284407 L 286.90578,37.284407 L 244.90578,37.284407 L 244.90578,16.284407 L 160.90578,16.284407 L 160.90578,37.284407 L 118.90578,37.284407 L 118.90578,58.284407 L 97.905775,58.284407 L 97.905775,79.284407 L 76.905775,79.284407 L 76.905775,100.28441 L 55.905775,100.28441 L 55.905775,121.28441 L 34.905775,121.28441 L 34.905775,205.28441 L 55.905775,205.28441 L 55.905775,226.28441 L 76.905775,226.28441 z"
     id="path5097"
     inkscape:connector-curvature="0" />
  <path
     style="color:#000000;fill:none;stroke:#000000;stroke-width:2;stroke-linecap:butt;stroke-linejoin:miter;stroke-miterlimit:4;stroke-opacity:1;stroke-dasharray:none;stroke-dashoffset:0;marker:none;visibility:visible;display:inline;overflow:visible;enable-background:accumulate"
     d="M 139.90578,142.28441 L 139.90578,184.28441 L 160.90578,184.28441 L 160.90578,205.28441 L 244.90578,205.28441 L 244.90578,184.28441 L 265.90578,184.28441 L 265.90578,142.28441 z"
     id="path5099"
     inkscape:connector-curvature="0" />
  <path
     style="color:#000000;fill:none;stroke:#000000;stroke-width:2;stroke-linecap:butt;stroke-linejoin:miter;stroke-miterlimit:4;stroke-opacity:1;stroke-dasharray:none;stroke-dashoffset:0;marker:none;visibility:visible;display:inline;overflow:visible;enable-background:accumulate"
     d="M 118.90578,205.28441 L 76.905775,205.28441 L 76.905775,163.28441 L 55.905775,163.28441 L 55.905775,121.28441 L 76.905775,121.28441 L 76.905775,100.28441 L 97.905775,100.28441 L 97.905775,79.284407 L 118.90578,79.284407 L 118.90578,37.284407 L 286.90578,37.284407 L 286.90578,79.284407 L 307.90578,79.284407 L 307.90578,100.28441 L 328.90578,100.28441 L 328.90578,121.28441 L 349.90578,121.28441 L 349.90578,163.28441 L 328.90578,163.28441 L 328.90578,205.28441 L 286.90578,205.28441 L 286.90578,184.28441 L 265.90578,184.28441 L 265.90578,142.28441 L 139.90578,142.28441 L 139.90578,184.28441 L 118.90578,184.28441 z"
     id="path5101"
     inkscape:connector-curvature="0" />
</svg>
