<?xml version="1.0" encoding="UTF-8" standalone="no"?>
<!-- Created with Inkscape (http://www.inkscape.org/) -->

<svg
   xmlns:dc="http://purl.org/dc/elements/1.1/"
   xmlns:cc="http://creativecommons.org/ns#"
   xmlns:rdf="http://www.w3.org/1999/02/22-rdf-syntax-ns#"
   xmlns:svg="http://www.w3.org/2000/svg"
   xmlns="http://www.w3.org/2000/svg"
   xmlns:sodipodi="http://sodipodi.sourceforge.net/DTD/sodipodi-0.dtd"
   xmlns:inkscape="http://www.inkscape.org/namespaces/inkscape"
   id="svg3039"
   version="1.1"
   inkscape:version="0.48.3.1 r9886"
   width="379.125"
   height="379.125"
   sodipodi:docname="critter3.svg">
  <metadata
     id="metadata3045">
    <rdf:RDF>
      <cc:Work
         rdf:about="">
        <dc:format>image/svg+xml</dc:format>
        <dc:type
           rdf:resource="http://purl.org/dc/dcmitype/StillImage" />
        <dc:title></dc:title>
      </cc:Work>
    </rdf:RDF>
  </metadata>
  <defs
     id="defs3043" />
  <sodipodi:namedview
     pagecolor="#ffffff"
     bordercolor="#666666"
     borderopacity="1"
     objecttolerance="10"
     gridtolerance="10"
     guidetolerance="10"
     inkscape:pageopacity="0"
     inkscape:pageshadow="2"
     inkscape:window-width="1112"
     inkscape:window-height="847"
     id="namedview3041"
     showgrid="true"
     inkscape:zoom="0.044194174"
     inkscape:cx="175.49066"
     inkscape:cy="200.51349"
     inkscape:current-layer="svg3039"
     fit-margin-top="0"
     fit-margin-left="0"
     fit-margin-right="0"
     fit-margin-bottom="0"
     inkscape:snap-nodes="true"
     inkscape:window-x="0"
     inkscape:window-y="0"
     inkscape:window-maximized="0">
    <inkscape:grid
       type="xygrid"
       id="grid3049"
       empspacing="1"
       visible="true"
       enabled="true"
       snapvisiblegridlinesonly="true"
       spacingx="4.200000000000002px"
       originx="34.905775213058px"
       spacingy="4.2px"
       originy="5.840593134506px"
       dotted="false" />
  </sodipodi:namedview>
  <rect
     style="color:#000000;fill:none;stroke:#000000;stroke-width:8.32999992;stroke-linecap:butt;stroke-linejoin:miter;stroke-miterlimit:4;stroke-opacity:1;stroke-dasharray:none;stroke-dashoffset:0;marker:none;visibility:visible;display:inline;overflow:visible;enable-background:accumulate"
     id="UnitRectangle"
     width="2498.9998"
     height="2498.9998"
     x="202.90578"
     y="-2314.7156" />
  <path
     style="color:#000000;fill:#fbfff8;stroke:#000000;stroke-width:2;stroke-linecap:butt;stroke-linejoin:miter;stroke-miterlimit:4;stroke-opacity:1;stroke-dasharray:none;stroke-dashoffset:0;marker:none;visibility:visible;display:inline;overflow:visible;enable-background:accumulate;fill-opacity:1"
     d="M 76.905775,331.28441 L 160.90578,331.28441 L 160.90578,268.28441 L 181.90578,268.28441 L 181.90578,247.28441 L 244.90578,247.28441 L 244.90578,289.28441 L 328.90578,289.28441 L 328.90578,268.28441 L 286.90578,268.28441 L 286.90578,247.28441 L 265.90578,247.28441 L 265.90578,226.28441 L 307.90578,226.28441 L 307.90578,205.28441 L 328.90578,205.28441 L 328.90578,163.28441 L 307.90578,163.28441 L 307.90578,142.28441 L 244.90578,142.28441 L 244.90578,100.28441 L 265.90578,100.28441 L 265.90578,37.284407 L 244.90578,37.284407 L 244.90578,16.284407 L 160.90578,16.284407 L 160.90578,37.284407 L 139.90578,37.284407 L 139.90578,100.28441 L 160.90578,100.28441 L 160.90578,121.28441 L 118.90578,121.28441 L 118.90578,142.28441 L 55.905775,142.28441 L 55.905775,184.28441 L 97.905775,184.28441 L 97.905775,163.28441 L 139.90578,163.28441 L 139.90578,142.28441 L 160.90578,142.28441 L 160.90578,163.28441 L 181.90578,163.28441 L 181.90578,184.28441 L 139.90578,184.28441 L 139.90578,226.28441 L 160.90578,226.28441 L 160.90578,247.28441 L 139.90578,247.28441 L 139.90578,268.28441 L 118.90578,268.28441 L 118.90578,310.28441 L 76.905775,310.28441 z"
     id="path5232"
     inkscape:connector-curvature="0" />
  <path
     style="color:#000000;fill:#606060;stroke:#000000;stroke-width:2;stroke-linecap:butt;stroke-linejoin:miter;stroke-miterlimit:4;stroke-opacity:1;stroke-dasharray:none;stroke-dashoffset:0;marker:none;visibility:visible;display:inline;overflow:visible;enable-background:accumulate;fill-opacity:1"
     d="M 160.90578,226.28441 L 160.90578,205.28441 L 181.90578,205.28441 L 181.90578,226.28441 z"
     id="path5234"
     inkscape:connector-curvature="0" />
  <path
     style="color:#000000;fill:#606060;stroke:#000000;stroke-width:2;stroke-linecap:butt;stroke-linejoin:miter;stroke-miterlimit:4;stroke-opacity:1;stroke-dasharray:none;stroke-dashoffset:0;marker:none;visibility:visible;display:inline;overflow:visible;enable-background:accumulate;fill-opacity:1"
     d="M 202.90578,226.28441 L 202.90578,205.28441 L 223.90578,205.28441 L 223.90578,226.28441 z"
     id="path5236"
     inkscape:connector-curvature="0" />
  <path
     style="color:#000000;fill:#606060;stroke:#000000;stroke-width:2;stroke-linecap:butt;stroke-linejoin:miter;stroke-miterlimit:4;stroke-opacity:1;stroke-dasharray:none;stroke-dashoffset:0;marker:none;visibility:visible;display:inline;overflow:visible;enable-background:accumulate;fill-opacity:1"
     d="M 181.90578,142.28441 L 181.90578,121.28441 L 202.90578,121.28441 L 202.90578,142.28441 z"
     id="path5238"
     inkscape:connector-curvature="0" />
  <path
     style="color:#000000;fill:#606060;stroke:#000000;stroke-width:2;stroke-linecap:butt;stroke-linejoin:miter;stroke-miterlimit:4;stroke-opacity:1;stroke-dasharray:none;stroke-dashoffset:0;marker:none;visibility:visible;display:inline;overflow:visible;enable-background:accumulate;fill-opacity:1"
     d="M 202.90578,184.28441 L 202.90578,163.28441 L 244.90578,163.28441 L 244.90578,184.28441 z"
     id="path5240"
     inkscape:connector-curvature="0" />
  <path
     style="color:#000000;fill:#ff3804;stroke:#000000;stroke-width:2;stroke-linecap:butt;stroke-linejoin:miter;stroke-miterlimit:4;stroke-opacity:1;stroke-dasharray:none;stroke-dashoffset:0;marker:none;visibility:visible;display:inline;overflow:visible;enable-background:accumulate;fill-opacity:1"
     d="M 160.90578,37.284407 L 181.90578,37.284407 L 181.90578,58.284407 L 160.90578,58.284407 L 160.90578,79.284407 L 150,79.284407 L 150,37.284407 z"
     id="path5248"
     inkscape:connector-curvature="0" />
  <path
     style="color:#000000;fill:#ff3804;stroke:#000000;stroke-width:2;stroke-linecap:butt;stroke-linejoin:miter;stroke-miterlimit:4;stroke-opacity:1;stroke-dasharray:none;stroke-dashoffset:0;marker:none;visibility:visible;display:inline;overflow:visible;enable-background:accumulate;fill-opacity:1"
     d="M 244.90578,37.284407 L 244.90578,79.284407 L 234,79.284407 L 234,58.284407 L 213,58.284407 L 213,37.284407 z"
     id="path5250"
     inkscape:connector-curvature="0" />
  <path
     style="color:#000000;fill:#ff3804;stroke:#000000;stroke-width:2;stroke-linecap:butt;stroke-linejoin:miter;stroke-miterlimit:4;stroke-opacity:1;stroke-dasharray:none;stroke-dashoffset:0;marker:none;visibility:visible;display:inline;overflow:visible;enable-background:accumulate;fill-opacity:1"
     d="M 191.62594,79.284407 L 213.54625,79.284407 L 213.54625,89.918327 L 191.62594,89.918327 z"
     id="path5254"
     inkscape:connector-curvature="0" />
  <path
     style="color:#000000;fill:#ff3804;stroke:#000000;stroke-width:2;stroke-linecap:butt;stroke-linejoin:miter;stroke-miterlimit:4;stroke-opacity:1;stroke-dasharray:none;stroke-dashoffset:0;marker:none;visibility:visible;display:inline;overflow:visible;enable-background:accumulate;fill-opacity:1"
     d="M 265.90578,152.85083 L 307.90578,152.85083 L 307.90578,205.28441 L 286.90578,205.28441 L 286.90578,173.35693 L 265.90578,172.64982 z"
     id="path5256"
     inkscape:connector-curvature="0" />
  <path
     style="color:#000000;fill:#ff3804;stroke:#000000;stroke-width:2;stroke-linecap:butt;stroke-linejoin:miter;stroke-miterlimit:4;stroke-opacity:1;stroke-dasharray:none;stroke-dashoffset:0;marker:none;visibility:visible;display:inline;overflow:visible;enable-background:accumulate;fill-opacity:1"
     d="M 55.905775,184.28441 L 55.905775,205.28441 L 97.905775,205.28441 L 97.905775,184.28441 z"
     id="path5258"
     inkscape:connector-curvature="0" />
  <path
     style="color:#000000;fill:#ff3804;stroke:#000000;stroke-width:2;stroke-linecap:butt;stroke-linejoin:miter;stroke-miterlimit:4;stroke-opacity:1;stroke-dasharray:none;stroke-dashoffset:0;marker:none;visibility:visible;display:inline;overflow:visible;enable-background:accumulate;fill-opacity:1"
     d="M 34.905775,133.75895 L 108.18734,133.75895 L 108.18734,152.14372 L 34.905775,151.43662 z"
     id="path5260"
     inkscape:connector-curvature="0" />
  <path
     style="color:#000000;fill:#ffa544;stroke:#000000;stroke-width:2;stroke-linecap:butt;stroke-linejoin:miter;stroke-miterlimit:4;stroke-opacity:1;stroke-dasharray:none;stroke-dashoffset:0;marker:none;visibility:visible;display:inline;overflow:visible;enable-background:accumulate;fill-opacity:1"
     d="M 55.905775,133.05184 L 55.905775,37.284407 L 76.905775,37.284407 L 76.905775,16.284407 L 97.905775,16.284407 L 97.905775,133.05184 z"
     id="path5262"
     inkscape:connector-curvature="0" />
  <path
     style="color:#000000;fill:#ffa544;stroke:#000000;stroke-width:2;stroke-linecap:butt;stroke-linejoin:miter;stroke-miterlimit:4;stroke-opacity:1;stroke-dasharray:none;stroke-dashoffset:0;marker:none;visibility:visible;display:inline;overflow:visible;enable-background:accumulate;fill-opacity:1"
     d="M 194.45436,121.28441 L 194.45436,113.25285 L 223.90578,113.95996 L 223.90578,131.63763 L 244.90578,131.63763 L 244.90578,153.55794 L 265.90578,154.26504 L 265.90578,174.06403 L 286.90578,174.06403 L 286.90578,205.28441 L 265.90578,205.28441 L 265.90578,184.28441 L 244.90578,184.28441 L 244.90578,163.28441 L 223.90578,163.28441 L 223.90578,150.72951 L 211.42493,150.72951 L 212.13203,131.63763 L 202.90578,132.34473 L 202.90578,121.28441 z"
     id="path5264"
     inkscape:connector-curvature="0" />
  <path
     style="color:#000000;fill:#ff3804;stroke:#000000;stroke-width:2;stroke-linecap:butt;stroke-linejoin:miter;stroke-miterlimit:4;stroke-opacity:1;stroke-dasharray:none;stroke-dashoffset:0;marker:none;visibility:visible;display:inline;overflow:visible;enable-background:accumulate;fill-opacity:1"
     d="M 244.90578,184.28441 L 244.90578,226.28441 L 286.90578,226.28441 L 286.90578,205.28441 L 265.90578,205.28441 L 265.90578,184.28441 z"
     id="path5266"
     inkscape:connector-curvature="0" />
</svg>
