<?xml version="1.0" encoding="UTF-8" standalone="no"?>
<!-- Created with Inkscape (http://www.inkscape.org/) -->

<svg
   xmlns:dc="http://purl.org/dc/elements/1.1/"
   xmlns:cc="http://creativecommons.org/ns#"
   xmlns:rdf="http://www.w3.org/1999/02/22-rdf-syntax-ns#"
   xmlns:svg="http://www.w3.org/2000/svg"
   xmlns="http://www.w3.org/2000/svg"
   xmlns:sodipodi="http://sodipodi.sourceforge.net/DTD/sodipodi-0.dtd"
   xmlns:inkscape="http://www.inkscape.org/namespaces/inkscape"
   id="svg3039"
   version="1.1"
   inkscape:version="0.48.3.1 r9886"
   width="379.125"
   height="379.125"
   sodipodi:docname="critter4.svg">
  <metadata
     id="metadata3045">
    <rdf:RDF>
      <cc:Work
         rdf:about="">
        <dc:format>image/svg+xml</dc:format>
        <dc:type
           rdf:resource="http://purl.org/dc/dcmitype/StillImage" />
        <dc:title></dc:title>
      </cc:Work>
    </rdf:RDF>
  </metadata>
  <defs
     id="defs3043" />
  <sodipodi:namedview
     pagecolor="#ffffff"
     bordercolor="#666666"
     borderopacity="1"
     objecttolerance="10"
     gridtolerance="10"
     guidetolerance="10"
     inkscape:pageopacity="0"
     inkscape:pageshadow="2"
     inkscape:window-width="1112"
     inkscape:window-height="847"
     id="namedview3041"
     showgrid="true"
     inkscape:zoom="1"
     inkscape:cx="241.29673"
     inkscape:cy="166.23003"
     inkscape:current-layer="svg3039"
     fit-margin-top="0"
     fit-margin-left="0"
     fit-margin-right="0"
     fit-margin-bottom="0"
     inkscape:snap-nodes="true"
     inkscape:window-x="0"
     inkscape:window-y="0"
     inkscape:window-maximized="0">
    <inkscape:grid
       type="xygrid"
       id="grid3049"
       empspacing="1"
       visible="true"
       enabled="true"
       snapvisiblegridlinesonly="true"
       spacingx="4.200000000000002px"
       originx="34.905775213058px"
       spacingy="4.2px"
       originy="5.840593134506px"
       dotted="false" />
  </sodipodi:namedview>
  <rect
     style="color:#000000;fill:none;stroke:#000000;stroke-width:8.32999992;stroke-linecap:butt;stroke-linejoin:miter;stroke-miterlimit:4;stroke-opacity:1;stroke-dasharray:none;stroke-dashoffset:0;marker:none;visibility:visible;display:inline;overflow:visible;enable-background:accumulate"
     id="UnitRectangle"
     width="2498.9998"
     height="2498.9998"
     x="202.90578"
     y="-2314.7156" />
  <path
     style="color:#000000;fill:#f92001;stroke:#000000;stroke-width:2;stroke-linecap:butt;stroke-linejoin:miter;stroke-miterlimit:4;stroke-opacity:1;stroke-dasharray:none;stroke-dashoffset:0;marker:none;visibility:visible;display:inline;overflow:visible;enable-background:accumulate;fill-opacity:1"
     d="M 13.905775,163.28441 L 13.905775,289.28441 L 76.905775,289.28441 L 76.905775,268.28441 L 97.905775,268.28441 L 97.905775,226.28441 L 118.90578,226.28441 L 118.90578,289.28441 L 97.905775,289.28441 L 97.905775,331.28441 L 76.905775,331.28441 L 76.905775,352.28441 L 328.90578,352.28441 L 328.90578,331.28441 L 286.90578,331.28441 L 286.90578,289.28441 L 265.90578,289.28441 L 265.90578,226.28441 L 286.90578,226.28441 L 286.90578,268.28441 L 307.90578,268.28441 L 307.90578,289.28441 L 349.90578,289.28441 L 349.90578,163.28441 L 328.90578,163.28441 L 328.90578,142.28441 L 307.90578,142.28441 L 307.90578,121.28441 L 76.905775,121.28441 L 76.905775,142.28441 L 55.905775,142.28441 L 55.905775,163.28441 z"
     id="path5339"
     inkscape:connector-curvature="0" />
  <path
     style="color:#000000;fill:#fff4ee;stroke:#000000;stroke-width:2;stroke-linecap:butt;stroke-linejoin:miter;stroke-miterlimit:4;stroke-opacity:1;stroke-dasharray:none;stroke-dashoffset:0;marker:none;visibility:visible;display:inline;overflow:visible;enable-background:accumulate;fill-opacity:1"
     d="M 118.90578,100.28441 L 118.90578,142.28441 L 97.905775,142.28441 L 97.905775,163.28441 L 76.905775,163.28441 L 76.905775,205.28441 L 97.905775,205.28441 L 97.905775,184.28441 L 118.90578,184.28441 L 118.90578,163.28441 L 139.90578,163.28441 L 139.90578,184.28441 L 150,184.28441 L 150,226.28441 L 160.90578,226.28441 L 160.90578,247.28441 L 202.90578,247.28441 L 202.90578,226.28441 L 244.90578,226.28441 L 244.90578,163.28441 L 276,163.28441 L 276,184.28441 L 286.90578,184.28441 L 286.90578,205.28441 L 307.90578,205.28441 L 307.90578,163.28441 L 286.90578,163.28441 L 286.90578,142.28441 L 265.90578,142.28441 L 265.90578,100.28441 L 244.90578,100.28441 L 244.90578,121.28441 L 139.90578,121.28441 L 139.90578,100.28441 z"
     id="path5341"
     inkscape:connector-curvature="0" />
  <path
     style="color:#000000;fill:#e9975b;stroke:#000000;stroke-width:2;stroke-linecap:butt;stroke-linejoin:miter;stroke-miterlimit:4;stroke-opacity:1;stroke-dasharray:none;stroke-dashoffset:0;marker:none;visibility:visible;display:inline;overflow:visible;enable-background:accumulate;fill-opacity:1;fill-rule:nonzero"
     d="M 97.905775,100.28441 L 97.905775,58.284407 L 118.90578,58.284407 L 118.90578,37.284407 L 139.90578,37.284407 L 139.90578,16.284407 L 244.90578,16.284407 L 244.90578,37.284407 L 265.90578,37.284407 L 265.90578,58.284407 L 286.90578,58.284407 L 286.90578,100.28441 L 244.90578,100.28441 L 244.90578,121.28441 L 139.90578,121.28441 L 139.90578,100.28441 z"
     id="path5343"
     inkscape:connector-curvature="0" />
  <path
     style="color:#000000;fill:#270000;stroke:#000000;stroke-width:2;stroke-linecap:butt;stroke-linejoin:miter;stroke-miterlimit:4;stroke-opacity:1;stroke-dasharray:none;stroke-dashoffset:0;marker:none;visibility:visible;display:inline;overflow:visible;enable-background:accumulate;fill-opacity:1"
     d="M 244.90578,100.28441 L 244.90578,79.284407 L 223.90578,79.284407 L 223.90578,100.28441 z"
     id="path5345"
     inkscape:connector-curvature="0" />
  <path
     style="color:#000000;fill:#270000;stroke:#000000;stroke-width:2;stroke-linecap:butt;stroke-linejoin:miter;stroke-miterlimit:4;stroke-opacity:1;stroke-dasharray:none;stroke-dashoffset:0;marker:none;visibility:visible;display:inline;overflow:visible;enable-background:accumulate;fill-opacity:1"
     d="M 160.90578,79.284407 L 181.90578,79.284407 L 181.90578,100.28441 L 160.90578,100.28441 z"
     id="path5347"
     inkscape:connector-curvature="0" />
  <path
     style="color:#000000;fill:#270000;stroke:#000000;stroke-width:2;stroke-linecap:butt;stroke-linejoin:miter;stroke-miterlimit:4;stroke-opacity:1;stroke-dasharray:none;stroke-dashoffset:0;marker:none;visibility:visible;display:inline;overflow:visible;enable-background:accumulate;fill-opacity:1"
     d="M 160.90578,153.125 L 160.90578,163.28441 L 244.90578,163.28441 L 244.90578,153.125 z"
     id="path5349"
     inkscape:connector-curvature="0" />
  <path
     style="color:#000000;fill:#e9975b;stroke:#000000;stroke-width:2;stroke-linecap:butt;stroke-linejoin:miter;stroke-miterlimit:4;stroke-opacity:1;stroke-dasharray:none;stroke-dashoffset:0;marker:none;visibility:visible;display:inline;overflow:visible;enable-background:accumulate;fill-opacity:1"
     d="M 13.905775,184.28441 L -7.0942248,184.28441 L -7.0942248,247.28441 L 13.905775,247.28441 z"
     id="path5351"
     inkscape:connector-curvature="0" />
  <path
     style="color:#000000;fill:#e9975b;stroke:#000000;stroke-width:2;stroke-linecap:butt;stroke-linejoin:miter;stroke-miterlimit:4;stroke-opacity:1;stroke-dasharray:none;stroke-dashoffset:0;marker:none;visibility:visible;display:inline;overflow:visible;enable-background:accumulate;fill-opacity:1"
     d="M 349.90578,184.28441 L 391.90578,184.28441 L 391.90578,247.28441 L 349.90578,247.28441 z"
     id="path5353"
     inkscape:connector-curvature="0" />
  <path
     style="color:#000000;fill:#e9975b;stroke:#000000;stroke-width:2;stroke-linecap:butt;stroke-linejoin:miter;stroke-miterlimit:4;stroke-opacity:1;stroke-dasharray:none;stroke-dashoffset:0;marker:none;visibility:visible;display:inline;overflow:visible;enable-background:accumulate;fill-opacity:1"
     d="M 118.90578,352.28441 L 118.90578,331.28441 L 160.90578,331.28441 L 160.90578,352.28441 z"
     id="path5355"
     inkscape:connector-curvature="0" />
  <path
     style="color:#000000;fill:#e9975b;stroke:#000000;stroke-width:2;stroke-linecap:butt;stroke-linejoin:miter;stroke-miterlimit:4;stroke-opacity:1;stroke-dasharray:none;stroke-dashoffset:0;marker:none;visibility:visible;display:inline;overflow:visible;enable-background:accumulate;fill-opacity:1"
     d="M 223.90578,352.28441 L 223.90578,331.28441 L 265.90578,331.28441 L 265.90578,352.28441 z"
     id="path5357"
     inkscape:connector-curvature="0" />
</svg>
