<?xml version="1.0" encoding="UTF-8" standalone="no"?>
<!-- Created with Inkscape (http://www.inkscape.org/) -->

<svg
   xmlns:dc="http://purl.org/dc/elements/1.1/"
   xmlns:cc="http://creativecommons.org/ns#"
   xmlns:rdf="http://www.w3.org/1999/02/22-rdf-syntax-ns#"
   xmlns:svg="http://www.w3.org/2000/svg"
   xmlns="http://www.w3.org/2000/svg"
   xmlns:sodipodi="http://sodipodi.sourceforge.net/DTD/sodipodi-0.dtd"
   xmlns:inkscape="http://www.inkscape.org/namespaces/inkscape"
   id="svg3039"
   version="1.1"
   inkscape:version="0.48.3.1 r9886"
   width="379.125"
   height="379.125"
   sodipodi:docname="critter8.svg">
  <metadata
     id="metadata3045">
    <rdf:RDF>
      <cc:Work
         rdf:about="">
        <dc:format>image/svg+xml</dc:format>
        <dc:type
           rdf:resource="http://purl.org/dc/dcmitype/StillImage" />
        <dc:title></dc:title>
      </cc:Work>
    </rdf:RDF>
  </metadata>
  <defs
     id="defs3043" />
  <sodipodi:namedview
     pagecolor="#ffffff"
     bordercolor="#666666"
     borderopacity="1"
     objecttolerance="10"
     gridtolerance="10"
     guidetolerance="10"
     inkscape:pageopacity="0"
     inkscape:pageshadow="2"
     inkscape:window-width="1112"
     inkscape:window-height="847"
     id="namedview3041"
     showgrid="true"
     inkscape:zoom="0.35355339"
     inkscape:cx="303.40292"
     inkscape:cy="270.45728"
     inkscape:current-layer="svg3039"
     fit-margin-top="0"
     fit-margin-left="0"
     fit-margin-right="0"
     fit-margin-bottom="0"
     inkscape:snap-nodes="true"
     inkscape:window-x="0"
     inkscape:window-y="0"
     inkscape:window-maximized="0">
    <inkscape:grid
       type="xygrid"
       id="grid3049"
       empspacing="1"
       visible="true"
       enabled="true"
       snapvisiblegridlinesonly="true"
       spacingx="4.200000000000002px"
       originx="34.905775213058px"
       spacingy="4.2px"
       originy="5.840593134506px"
       dotted="false" />
  </sodipodi:namedview>
  <rect
     style="color:#000000;fill:none;stroke:#000000;stroke-width:19.53000069;stroke-linecap:butt;stroke-linejoin:miter;stroke-miterlimit:4;stroke-opacity:1;stroke-dasharray:none;stroke-dashoffset:0;marker:none;visibility:visible;display:inline;overflow:visible;enable-background:accumulate"
     id="UnitRectangle"
     width="5859"
     height="5859"
     x="202.90578"
     y="-5674.7158" />
  <path
     style="color:#000000;fill:#7e4e37;stroke:#000000;stroke-width:2;stroke-linecap:butt;stroke-linejoin:miter;stroke-miterlimit:4;stroke-opacity:1;stroke-dasharray:none;stroke-dashoffset:0;marker:none;visibility:visible;display:inline;overflow:visible;enable-background:accumulate;fill-opacity:1"
     d="M 34.905775,-25.715593 L 34.905775,-67.715593 L 55.905775,-67.715593 L 55.905775,-151.71559 L 76.905775,-151.71559 L 76.905775,-193.71559 L 97.905775,-193.71559 L 97.905775,-214.71559 L 286.90578,-214.71559 L 286.90578,-193.71559 L 307.90578,-193.71559 L 307.90578,-151.71559 L 328.90578,-151.71559 L 328.90578,-67.715593 L 349.90578,-67.715593 L 349.90578,-25.715593 L 328.90578,-25.715593 L 328.90578,58.284407 L 55.905775,58.284407 L 55.905775,-25.715593 z"
     id="path5823"
     inkscape:connector-curvature="0" />
  <path
     style="color:#000000;fill:#000000;stroke:#000000;stroke-width:2;stroke-linecap:butt;stroke-linejoin:miter;stroke-miterlimit:4;stroke-opacity:1;stroke-dasharray:none;stroke-dashoffset:0;marker:none;visibility:visible;display:inline;overflow:visible;enable-background:accumulate;fill-opacity:1"
     d="M 13.905775,415.28441 L 13.905775,457.28441 L 139.90578,457.28441 L 139.90578,415.28441 L 160.90578,415.28441 L 160.90578,394.28441 L 223.90578,394.28441 L 223.90578,415.28441 L 244.90578,415.28441 L 244.90578,457.28441 L 370.90578,457.28441 L 370.90578,415.28441 L 349.90578,415.28441 L 349.90578,373.28441 L 328.90578,373.28441 L 328.90578,289.28441 L 223.90578,289.28441 L 223.90578,331.28441 L 160.90578,331.28441 L 160.90578,289.28441 L 55.905775,289.28441 L 55.905775,373.28441 L 34.905775,373.28441 L 34.905775,415.28441 z"
     id="path5795"
     inkscape:connector-curvature="0" />
  <path
     style="color:#000000;fill:#633e2b;stroke:#000000;stroke-width:2;stroke-linecap:butt;stroke-linejoin:miter;stroke-miterlimit:4;stroke-opacity:1;stroke-dasharray:none;stroke-dashoffset:0;marker:none;visibility:visible;display:inline;overflow:visible;enable-background:accumulate;fill-opacity:1"
     d="M 13.905775,457.28441 L 13.905775,499.28441 L 139.90578,499.28441 L 139.90578,457.28441 z"
     id="path5797"
     inkscape:connector-curvature="0" />
  <path
     style="color:#000000;fill:#633e2b;stroke:#000000;stroke-width:2;stroke-linecap:butt;stroke-linejoin:miter;stroke-miterlimit:4;stroke-opacity:1;stroke-dasharray:none;stroke-dashoffset:0;marker:none;visibility:visible;display:inline;overflow:visible;enable-background:accumulate;fill-opacity:1"
     d="M 244.90578,457.28441 L 244.90578,499.28441 L 370.90578,499.28441 L 370.90578,457.28441 z"
     id="path5799"
     inkscape:connector-curvature="0" />
  <path
     style="color:#000000;fill:#2c65b1;stroke:#000000;stroke-width:2;stroke-linecap:butt;stroke-linejoin:miter;stroke-miterlimit:4;stroke-opacity:1;stroke-dasharray:none;stroke-dashoffset:0;marker:none;visibility:visible;display:inline;overflow:visible;enable-background:accumulate;fill-opacity:1"
     d="M 55.905775,289.28441 L 55.905775,142.28441 L 34.905775,142.28441 L 34.905775,121.28441 L 13.905775,121.28441 L 13.905775,58.284407 L 370.90578,58.284407 L 370.90578,121.28441 L 349.90578,121.28441 L 349.90578,142.28441 L 328.90578,142.28441 L 328.90578,289.28441 L 55.905775,289.28441 z"
     id="path5803"
     inkscape:connector-curvature="0" />
  <path
     style="color:#000000;fill:#f8e968;stroke:#000000;stroke-width:2;stroke-linecap:butt;stroke-linejoin:miter;stroke-miterlimit:4;stroke-opacity:1;stroke-dasharray:none;stroke-dashoffset:0;marker:none;visibility:visible;display:inline;overflow:visible;enable-background:accumulate;fill-opacity:1"
     d="M 160.90578,289.28441 L 160.90578,331.28441 L 223.90578,331.28441 L 223.90578,289.28441 z"
     id="path5805"
     inkscape:connector-curvature="0" />
  <path
     style="color:#000000;fill:#f8e968;fill-opacity:1;stroke:#000000;stroke-width:2;stroke-linecap:butt;stroke-linejoin:miter;stroke-miterlimit:4;stroke-opacity:1;stroke-dasharray:none;stroke-dashoffset:0;marker:none;visibility:visible;display:inline;overflow:visible;enable-background:accumulate"
     d="M 34.905775,37.284407 L 34.905775,100.28441 L 55.905775,100.28441 L 55.905775,121.28441 L 76.905775,121.28441 L 76.905775,142.28441 L 97.905775,142.28441 L 97.905775,163.28441 L 118.90578,163.28441 L 118.90578,184.28441 L 139.90578,184.28441 L 139.90578,205.28441 L 160.90578,205.28441 L 160.90578,226.28441 L 181.90578,226.28441 L 181.90578,205.28441 L 202.90578,205.28441 L 202.90578,226.28441 L 223.90578,226.28441 L 223.90578,205.28441 L 244.90578,205.28441 L 244.90578,184.28441 L 265.90578,184.28441 L 265.90578,163.28441 L 286.90578,163.28441 L 286.90578,142.28441 L 307.90578,142.28441 L 307.90578,121.28441 L 328.90578,121.28441 L 328.90578,100.28441 L 349.90578,100.28441 L 349.90578,79.284407 L 349.90578,58.284407 L 328.90578,58.284407 L 307.90578,58.284407 L 307.90578,79.284407 L 286.90578,79.284407 L 286.90578,100.28441 L 265.90578,100.28441 L 265.90578,121.28441 L 244.90578,121.28441 L 244.90578,142.28441 L 139.90578,142.28441 L 139.90578,121.28441 L 118.90578,121.28441 L 118.90578,100.28441 L 97.905775,100.28441 L 97.905775,79.284407 L 76.905775,79.284407 L 76.905775,58.284407 L 55.905775,58.284407 L 55.905775,37.284407 z"
     id="path5807"
     inkscape:connector-curvature="0"
     sodipodi:nodetypes="ccccccccccccccccccccccccccccccccccccccccccccccccccccc" />
  <path
     style="color:#000000;fill:#f8e968;stroke:#000000;stroke-width:2;stroke-linecap:butt;stroke-linejoin:miter;stroke-miterlimit:4;stroke-opacity:1;stroke-dasharray:none;stroke-dashoffset:0;marker:none;visibility:visible;display:inline;overflow:visible;enable-background:accumulate;fill-opacity:1"
     d="M 34.905775,-25.715593 L 34.905775,-4.7155931 L 55.905775,-4.7155931 L 55.905775,-25.715593 z"
     id="path5809"
     inkscape:connector-curvature="0" />
  <path
     style="color:#000000;fill:#f8e968;stroke:#000000;stroke-width:2;stroke-linecap:butt;stroke-linejoin:miter;stroke-miterlimit:4;stroke-opacity:1;stroke-dasharray:none;stroke-dashoffset:0;marker:none;visibility:visible;display:inline;overflow:visible;enable-background:accumulate;fill-opacity:1"
     d="M 328.90578,-25.715593 L 328.90578,-4.7155931 L 349.90578,-4.7155931 L 349.90578,-25.715593 z"
     id="path5811"
     inkscape:connector-curvature="0" />
  <path
     style="color:#000000;fill:#161616;stroke:#000000;stroke-width:2;stroke-linecap:butt;stroke-linejoin:miter;stroke-miterlimit:4;stroke-opacity:1;stroke-dasharray:none;stroke-dashoffset:0;marker:none;visibility:visible;display:inline;overflow:visible;enable-background:accumulate;fill-opacity:1"
     d="M 55.905775,-88.715593 L 55.905775,58.284407 L 76.905775,58.284407 L 76.905775,79.284407 L 97.905775,79.284407 L 97.905775,100.28441 L 118.90578,100.28441 L 118.90578,121.28441 L 139.90578,121.28441 L 139.90578,142.28441 L 244.90578,142.28441 L 244.90578,121.28441 L 265.90578,121.28441 L 265.90578,100.28441 L 286.90578,100.28441 L 286.90578,79.284407 L 307.90578,79.284407 L 307.90578,58.284407 L 328.90578,58.284407 L 328.90578,-88.715593 L 307.90578,-88.715593 L 307.90578,16.284407 L 286.90578,16.284407 L 286.90578,37.284407 L 265.90578,37.284407 L 265.90578,58.284407 L 244.90578,58.284407 L 244.90578,37.284407 L 139.90578,37.284407 L 139.90578,58.284407 L 118.90578,58.284407 L 118.90578,37.284407 L 97.905775,37.284407 L 97.905775,16.284407 L 76.905775,16.284407 L 76.905775,-88.715593 z"
     id="path5813"
     inkscape:connector-curvature="0"
     sodipodi:nodetypes="ccccccccccccccccccccccccccccccccccccc" />
  <path
     style="color:#000000;fill:#5c3434;stroke:#000000;stroke-width:2;stroke-linecap:butt;stroke-linejoin:miter;stroke-miterlimit:4;stroke-opacity:1;stroke-dasharray:none;stroke-dashoffset:0;marker:none;visibility:visible;display:inline;overflow:visible;enable-background:accumulate;fill-opacity:1"
     d="M 160.90578,58.284407 L 160.90578,79.284407 L 223.90578,79.284407 L 223.90578,58.284407 z"
     id="path5815"
     inkscape:connector-curvature="0" />
  <path
     style="color:#000000;fill:#000000;stroke:#000000;stroke-width:2;stroke-linecap:butt;stroke-linejoin:miter;stroke-miterlimit:4;stroke-opacity:1;stroke-dasharray:none;stroke-dashoffset:0;marker:none;visibility:visible;display:inline;overflow:visible;enable-background:accumulate;fill-opacity:1"
     d="M 97.905775,-67.715593 L 97.905775,-46.715593 L 118.90578,-46.715593 L 118.90578,-25.715593 L 139.90578,-25.715593 L 139.90578,-46.715593 L 160.90578,-46.715593 L 160.90578,-67.715593 z"
     id="path5817"
     inkscape:connector-curvature="0" />
  <path
     style="color:#000000;fill:#000000;stroke:#000000;stroke-width:2;stroke-linecap:butt;stroke-linejoin:miter;stroke-miterlimit:4;stroke-opacity:1;stroke-dasharray:none;stroke-dashoffset:0;marker:none;visibility:visible;display:inline;overflow:visible;enable-background:accumulate;fill-opacity:1"
     d="M 223.90578,-67.715593 L 223.90578,-46.715593 L 244.90578,-46.715593 L 244.90578,-25.715593 L 265.90578,-25.715593 L 265.90578,-46.715593 L 286.90578,-46.715593 L 286.90578,-67.715593 z"
     id="path5819"
     inkscape:connector-curvature="0" />
  <path
     style="color:#000000;fill:#161616;stroke:#000000;stroke-width:2;stroke-linecap:butt;stroke-linejoin:miter;stroke-miterlimit:4;stroke-opacity:1;stroke-dasharray:none;stroke-dashoffset:0;marker:none;visibility:visible;display:inline;overflow:visible;enable-background:accumulate;fill-opacity:1"
     d="M 139.90578,-277.71559 L 139.90578,-172.71559 L 244.90578,-172.71559 L 244.90578,-277.71559 z"
     id="path5821"
     inkscape:connector-curvature="0" />
  <path
     style="color:#000000;fill:#7e4e37;stroke:#000000;stroke-width:2;stroke-linecap:butt;stroke-linejoin:miter;stroke-miterlimit:4;stroke-opacity:1;stroke-dasharray:none;stroke-dashoffset:0;marker:none;visibility:visible;display:inline;overflow:visible;enable-background:accumulate;fill-opacity:1"
     d="M 13.905775,58.284407 L -28.094225,58.284407 L -28.094225,79.284407 L -49.094225,79.284407 L -49.094225,100.28441 L -70.094225,100.28441 L -70.094225,121.28441 L -91.094225,121.28441 L -91.094225,163.28441 L -91.094225,184.28441 L -28.094225,184.28441 L -28.094225,163.28441 L 13.905775,163.28441 L 13.905775,142.28441 L 34.905775,142.28441 L 34.905775,121.28441 L 13.905775,121.28441 z"
     id="path5825"
     inkscape:connector-curvature="0" />
  <path
     style="color:#000000;fill:#7e4e37;stroke:#000000;stroke-width:2;stroke-linecap:butt;stroke-linejoin:miter;stroke-miterlimit:4;stroke-opacity:1;stroke-dasharray:none;stroke-dashoffset:0;marker:none;visibility:visible;display:inline;overflow:visible;enable-background:accumulate;fill-opacity:1"
     d="M -133.09422,205.28441 L -49.094225,205.28441 L -49.094225,226.28441 L -28.094225,226.28441 L -28.094225,268.28441 L -49.094225,268.28441 L -49.094225,289.28441 L -112.09422,289.28441 L -112.09422,268.28441 L -133.09422,268.28441 z"
     id="path5827"
     inkscape:connector-curvature="0" />
  <path
     style="color:#000000;fill:#f8e968;stroke:#000000;stroke-width:2;stroke-linecap:butt;stroke-linejoin:miter;stroke-miterlimit:4;stroke-opacity:1;stroke-dasharray:none;stroke-dashoffset:0;marker:none;visibility:visible;display:inline;overflow:visible;enable-background:accumulate;fill-opacity:1"
     d="M -91.094225,163.28441 L -112.09422,163.28441 L -112.09422,205.28441 L -49.094225,205.28441 L -49.094225,184.28441 L -91.094225,184.28441 z"
     id="path5829"
     inkscape:connector-curvature="0" />
  <path
     style="color:#000000;fill:#7e4e37;stroke:#000000;stroke-width:2;stroke-linecap:butt;stroke-linejoin:miter;stroke-miterlimit:4;stroke-opacity:1;stroke-dasharray:none;stroke-dashoffset:0;marker:none;visibility:visible;display:inline;overflow:visible;enable-background:accumulate;fill-opacity:1"
     d="M 370.90578,58.284407 L 412.90578,58.284407 L 412.90578,79.284407 L 433.90578,79.284407 L 433.90578,100.28441 L 454.90578,100.28441 L 454.90578,121.28441 L 475.90578,121.28441 L 475.90578,184.28441 L 412.90578,184.28441 L 412.90578,142.28441 L 349.90578,142.28441 L 349.90578,121.28441 L 370.90578,121.28441 z"
     id="path5831"
     inkscape:connector-curvature="0" />
  <path
     style="color:#000000;fill:#7e4e37;stroke:#000000;stroke-width:2;stroke-linecap:butt;stroke-linejoin:miter;stroke-miterlimit:4;stroke-opacity:1;stroke-dasharray:none;stroke-dashoffset:0;marker:none;visibility:visible;display:inline;overflow:visible;enable-background:accumulate;fill-opacity:1"
     d="M 412.90578,226.28441 L 475.90578,226.28441 L 475.90578,205.28441 L 517.90578,205.28441 L 517.90578,268.28441 L 496.90578,268.28441 L 496.90578,289.28441 L 433.90578,289.28441 L 433.90578,268.28441 L 412.90578,268.28441 z"
     id="path5833"
     inkscape:connector-curvature="0" />
  <path
     style="color:#000000;fill:#f8e968;stroke:#000000;stroke-width:2;stroke-linecap:butt;stroke-linejoin:miter;stroke-miterlimit:4;stroke-opacity:1;stroke-dasharray:none;stroke-dashoffset:0;marker:none;visibility:visible;display:inline;overflow:visible;enable-background:accumulate;fill-opacity:1"
     d="M 433.90578,226.28441 L 433.90578,184.28441 L 475.90578,184.28441 L 475.90578,163.28441 L 496.90578,163.28441 L 496.90578,205.28441 L 475.90578,205.28441 L 475.90578,226.28441 z"
     id="path5835"
     inkscape:connector-curvature="0" />
</svg>
