<?xml version="1.0" encoding="UTF-8" standalone="no"?>
<!-- Created with Inkscape (http://www.inkscape.org/) -->

<svg xmlns:dc="http://purl.org/dc/elements/1.1/" xmlns:cc="http://creativecommons.org/ns#" xmlns:rdf="http://www.w3.org/1999/02/22-rdf-syntax-ns#" xmlns:svg="http://www.w3.org/2000/svg" xmlns="http://www.w3.org/2000/svg" xmlns:sodipodi="http://sodipodi.sourceforge.net/DTD/sodipodi-0.dtd" xmlns:inkscape="http://www.inkscape.org/namespaces/inkscape" id="svg3039" version="1.1" inkscape:version="0.48.3.1 r9886" width="379.125" height="379.125" sodipodi:docname="dungeonman_8bit.svg">
  <metadata id="metadata3045">
    <rdf:RDF>
      <cc:Work rdf:about="">
        <dc:format>image/svg+xml</dc:format>
        <dc:type rdf:resource="http://purl.org/dc/dcmitype/StillImage" />
        <dc:title></dc:title>
      </cc:Work>
    </rdf:RDF>
  </metadata>
  <defs id="defs3043" />
  <sodipodi:namedview pagecolor="#ffffff" bordercolor="#666666" borderopacity="1" objecttolerance="10" gridtolerance="10" guidetolerance="10" inkscape:pageopacity="0" inkscape:pageshadow="2" inkscape:window-width="640" inkscape:window-height="480" id="namedview3041" showgrid="true" inkscape:zoom="0.45000000023744" inkscape:cx="197.81722293091" inkscape:cy="257.32087131993" inkscape:current-layer="svg3039" fit-margin-top="0" fit-margin-left="0" fit-margin-right="0" fit-margin-bottom="0" inkscape:snap-nodes="false">
    <inkscape:grid type="xygrid" id="grid3049" empspacing="5" visible="true" enabled="true" snapvisiblegridlinesonly="true" spacingx="4.200000000000002px" originx="34.905775213058px" spacingy="4.2px" originy="5.840593134506px" />
  </sodipodi:namedview>
  <path style="color:#000000;fill:#ff9933;fill-opacity:1;stroke:#000000;stroke-width:2;stroke-opacity:1;marker:none;visibility:visible;display:inline;overflow:visible;enable-background:accumulate" d="M 326.05520629883,231.57092285156 L 326.05520629883,63.570922851562 L 305.05520629883,63.570922851562 L 305.05520629883,105.57092285156 L 283.62838675076,105.57092285156 L 277.34299313856,51.359402946289 L 120.99382703495,51.359402946289 L 115.49410762427,105.57092285156 L 95.05520629883,105.57092285156 L 95.05520629883,63.570922851562 L 74.055206298828,63.570922851562 L 74.055206298828,147.57092285156 L 95.05520629883,147.57092285156 L 95.05520629883,168.57092285156 L 137.05520629883,168.57092285156 L 137.05520629883,286.50097739511 L 74.055206298828,315.57092285156 L 74.055206298828,336.57092285156 L 179.05520629883,336.57092285156 L 179.05520629883,315.57092285156 L 200.05520629883,315.57092285156 L 200.05520629883,231.57092285156 z" id="path3079" inkscape:connector-curvature="0" sodipodi:nodetypes="ccccccccccccccccccccccc" />
  <path style="color:#000000;fill:#006600;fill-opacity:1;stroke:#000000;stroke-width:2;marker:none;visibility:visible;display:inline;overflow:visible;enable-background:accumulate;stroke-opacity:1" d="M 116.05520629883,42.570922851562 L 116.05520629883,84.570922851562 L 137.05520629883,84.570922851562 L 137.05520629883,63.570922851562 L 263.05520629883,63.570922851562 L 263.05520629883,84.570922851562 L 284.05520629883,84.570922851562 L 284.05520629883,42.570922851562 L 263.05520629883,42.570922851562 L 263.05520629883,21.570922851563 L 137.05520629883,21.570922851563 L 137.05520629883,42.570922851562 z" id="path3051" inkscape:connector-curvature="0" />
  <path style="color:#000000;fill:#663300;fill-opacity:1;stroke:#000000;stroke-width:2;marker:none;visibility:visible;display:inline;overflow:visible;enable-background:accumulate;stroke-opacity:1" d="M 137.05520629883,105.57092285156 L 137.05520629883,147.57092285156 L 116.05520629883,147.57092285156 L 116.05520629883,84.570922851562 L 137.05520629883,84.570922851562 L 137.05520629883,63.570922851562 L 263.05520629883,63.570922851562 L 263.05520629883,84.570922851562 L 284.05520629883,84.570922851562 L 284.05520629883,147.57092285156 L 263.05520629883,147.57092285156 L 263.05520629883,105.57092285156 z" id="path3053" inkscape:connector-curvature="0" />
  <path style="color:#000000;fill:#006600;fill-opacity:1;stroke:#000000;stroke-width:2;marker:none;visibility:visible;display:inline;overflow:visible;enable-background:accumulate;stroke-opacity:1" d="M 158.05520629883,126.57092285156 L 179.05520629883,126.57092285156 L 179.05520629883,105.57092285156 L 158.05520629883,105.57092285156 z" id="path3055" inkscape:connector-curvature="0" />
  <path style="color:#000000;fill:#663300;fill-opacity:1;stroke:#000000;stroke-width:2;marker:none;visibility:visible;display:inline;overflow:visible;enable-background:accumulate;stroke-opacity:1" d="M 242.05520629883,126.57092285156 L 242.05520629883,147.57092285156 L 221.05520629883,147.57092285156 L 221.05520629883,126.57092285156 z" id="path3059" inkscape:connector-curvature="0" />
  <path style="color:#000000;fill:#006600;fill-opacity:1;stroke:#000000;stroke-width:2;marker:none;visibility:visible;display:inline;overflow:visible;enable-background:accumulate;stroke-opacity:1" d="M 221.05520629883,126.57092285156 L 242.05520629883,126.57092285156 L 242.05520629883,105.57092285156 L 221.05520629883,105.57092285156 z" id="path3057" inkscape:connector-curvature="0" />
  <path style="color:#000000;fill:#663300;fill-opacity:1;stroke:#000000;stroke-width:2;marker:none;visibility:visible;display:inline;overflow:visible;enable-background:accumulate;stroke-opacity:1" d="M 179.05520629883,147.57092285156 L 158.05520629883,147.57092285156 L 158.05520629883,126.57092285156 L 179.05520629883,126.57092285156 z" id="path3061" inkscape:connector-curvature="0" />
  <path style="color:#000000;fill:#006600;fill-opacity:1;stroke:#000000;stroke-width:2;marker:none;visibility:visible;display:inline;overflow:visible;enable-background:accumulate;stroke-opacity:1" d="M 137.05520629883,168.57092285156 L 116.05520629883,168.57092285156 L 116.05520629883,189.57092285156 L 137.05520629883,189.57092285156 z" id="path3065" inkscape:connector-curvature="0" />
  <path style="color:#000000;fill:#663300;fill-opacity:1;stroke:#000000;stroke-width:2;marker:none;visibility:visible;display:inline;overflow:visible;enable-background:accumulate;stroke-opacity:1" d="M 179.05520629883,168.57092285156 L 179.05520629883,189.57092285156 L 221.05520629883,189.57092285156 L 221.05520629883,168.57092285156 z" id="path3063" inkscape:connector-curvature="0" />
  <path style="color:#000000;fill:#006600;fill-opacity:1;stroke:#000000;stroke-width:2;marker:none;visibility:visible;display:inline;overflow:visible;enable-background:accumulate;stroke-opacity:1" d="M 305.05520629883,294.57092285156 L 305.05520629883,189.57092285156 L 284.05520629883,189.57092285156 L 284.05520629883,168.57092285156 L 263.05520629883,168.57092285156 L 263.05520629883,189.57092285156 L 242.05520629883,189.57092285156 L 242.05520629883,210.57092285156 L 200.05520629883,210.57092285156 L 200.05520629883,315.57092285156 L 263.05520629883,315.57092285156 L 263.05520629883,294.57092285156 z" id="path3077" inkscape:connector-curvature="0" />
  <path style="color:#000000;fill:#663300;fill-opacity:1;stroke:#000000;stroke-width:2;marker:none;visibility:visible;display:inline;overflow:visible;enable-background:accumulate;stroke-opacity:1" d="M 74.055206298828,189.57092285156 L 74.055206298828,210.57092285156 L 53.055206298828,210.57092285156 L 53.055206298828,315.57092285156 L 179.05520629883,315.57092285156 L 179.05520629883,231.57092285156 L 200.05520629883,231.57092285156 L 200.05520629883,210.57092285156 L 179.05520629883,210.57092285156 L 179.05520629883,189.57092285156 z" id="path3067" inkscape:connector-curvature="0" />
  <path style="color:#000000;fill:#663300;fill-opacity:1;stroke:#000000;stroke-width:2;marker:none;visibility:visible;display:inline;overflow:visible;enable-background:accumulate;stroke-opacity:1" d="M 284.05520629883,168.57092285156 L 284.05520629883,189.57092285156 L 326.05520629883,189.57092285156 L 326.05520629883,147.57092285156 L 305.05520629883,147.57092285156 L 305.05520629883,168.57092285156 z" id="path3069" inkscape:connector-curvature="0" />
  <path style="color:#000000;fill:#663300;fill-opacity:1;stroke:#000000;stroke-width:2;marker:none;visibility:visible;display:inline;overflow:visible;enable-background:accumulate;stroke-opacity:1" d="M 305.05520629883,252.57092285156 L 305.05520629883,231.57092285156 L 284.05520629883,231.57092285156 L 284.05520629883,252.57092285156 z" id="path3071" inkscape:connector-curvature="0" />
  <path style="color:#000000;fill:#663300;fill-opacity:1;stroke:#000000;stroke-width:2;marker:none;visibility:visible;display:inline;overflow:visible;enable-background:accumulate;stroke-opacity:1" d="M 284.05520629883,273.57092285156 L 284.05520629883,252.57092285156 L 242.05520629883,252.57092285156 L 242.05520629883,231.57092285156 L 200.05520629883,231.57092285156 L 200.05520629883,252.57092285156 L 221.05520629883,252.57092285156 L 221.05520629883,273.57092285156 L 200.05520629883,273.57092285156 L 200.05520629883,294.57092285156 L 242.05520629883,294.57092285156 L 242.05520629883,273.57092285156 z" id="path3073" inkscape:connector-curvature="0" />
  <path style="color:#000000;fill:#663300;fill-opacity:1;stroke:#000000;stroke-width:2;marker:none;visibility:visible;display:inline;overflow:visible;enable-background:accumulate;stroke-opacity:1" d="M 284.05520629883,357.57092285156 L 284.05520629883,294.57092285156 L 263.05520629883,294.57092285156 L 263.05520629883,315.57092285156 L 221.05520629883,315.57092285156 L 221.05520629883,357.57092285156 z" id="path3075" inkscape:connector-curvature="0" />
  <path style="color:#000000;fill:#ffff00;fill-opacity:1;stroke:#000000;stroke-width:2;marker:none;visibility:visible;display:inline;overflow:visible;enable-background:accumulate;stroke-opacity:1" d="M 95.05520629883,210.57092285156 L 95.05520629883,231.57092285156 L 74.055206298828,231.57092285156 L 74.055206298828,252.57092285156 L 95.05520629883,252.57092285156 L 95.05520629883,294.57092285156 L 116.05520629883,294.57092285156 L 116.05520629883,252.57092285156 L 137.05520629883,252.57092285156 L 137.05520629883,231.57092285156 L 116.05520629883,231.57092285156 L 116.05520629883,210.57092285156 z" id="path3849" inkscape:connector-curvature="0" />
  <rect style="color:#000000;fill:none;stroke:#000000;stroke-width:2;stroke-linecap:butt;stroke-linejoin:miter;stroke-miterlimit:4;stroke-opacity:1;stroke-dasharray:none;stroke-dashoffset:0;marker:none;visibility:visible;display:inline;overflow:visible;enable-background:accumulate" id="UnitRectangle" width="300" height="300" x="188.56181335449" y="-111.43818664551" />
</svg>
