<?xml version="1.0" encoding="UTF-8" standalone="no"?>
<!-- Created with Inkscape (http://www.inkscape.org/) -->

<svg
   xmlns:dc="http://purl.org/dc/elements/1.1/"
   xmlns:cc="http://creativecommons.org/ns#"
   xmlns:rdf="http://www.w3.org/1999/02/22-rdf-syntax-ns#"
   xmlns:svg="http://www.w3.org/2000/svg"
   xmlns="http://www.w3.org/2000/svg"
   xmlns:sodipodi="http://sodipodi.sourceforge.net/DTD/sodipodi-0.dtd"
   xmlns:inkscape="http://www.inkscape.org/namespaces/inkscape"
   id="svg3039"
   version="1.1"
   inkscape:version="0.48.3.1 r9886"
   width="379.125"
   height="379.125"
   sodipodi:docname="dungeonman.svg">
  <metadata
     id="metadata3045">
    <rdf:RDF>
      <cc:Work
         rdf:about="">
        <dc:format>image/svg+xml</dc:format>
        <dc:type
           rdf:resource="http://purl.org/dc/dcmitype/StillImage" />
        <dc:title />
      </cc:Work>
    </rdf:RDF>
  </metadata>
  <defs
     id="defs3043" />
  <sodipodi:namedview
     pagecolor="#ffffff"
     bordercolor="#666666"
     borderopacity="1"
     objecttolerance="10"
     gridtolerance="10"
     guidetolerance="10"
     inkscape:pageopacity="0"
     inkscape:pageshadow="2"
     inkscape:window-width="1434"
     inkscape:window-height="847"
     id="namedview3041"
     showgrid="true"
     inkscape:zoom="0.35355339"
     inkscape:cx="532.18447"
     inkscape:cy="-153.75801"
     inkscape:current-layer="svg3039"
     fit-margin-top="0"
     fit-margin-left="0"
     fit-margin-right="0"
     fit-margin-bottom="0"
     inkscape:snap-nodes="false"
     inkscape:window-x="0"
     inkscape:window-y="0"
     inkscape:window-maximized="0">
    <inkscape:grid
       type="xygrid"
       id="grid3049"
       empspacing="5"
       visible="true"
       enabled="true"
       snapvisiblegridlinesonly="true"
       spacingx="4.200000000000002px"
       originx="34.905775213058px"
       spacingy="4.2px"
       originy="5.840593134506px" />
  </sodipodi:namedview>
  <path
     style="color:#000000;fill:#ff9933;fill-opacity:1;stroke:#000000;stroke-width:2;stroke-opacity:1;marker:none;visibility:visible;display:inline;overflow:visible;enable-background:accumulate;stroke-miterlimit:4;stroke-dasharray:none"
     d="M 53.05521,147.57093 L 53.05521,315.57093 L 74.05521,315.57093 L 74.05521,273.57093 L 95.48203,273.57093 L 101.76743,327.78245 L 258.11659,327.78245 L 263.61631,273.57093 L 284.05521,273.57093 L 284.05521,315.57093 L 305.05521,315.57093 L 305.05521,231.57093 L 284.05521,231.57093 L 284.05521,210.57093 L 242.05521,210.57093 L 242.05521,92.64087 L 305.05521,63.57093 L 305.05521,42.57093 L 200.05521,42.57093 L 200.05521,63.57093 L 179.05521,63.57093 L 179.05521,147.57093 z"
     id="path3079"
     inkscape:connector-curvature="0"
     sodipodi:nodetypes="ccccccccccccccccccccccc" />
  <path
     style="color:#000000;fill:#006600;fill-opacity:1;stroke:#000000;stroke-width:2;stroke-opacity:1;marker:none;visibility:visible;display:inline;overflow:visible;enable-background:accumulate;stroke-miterlimit:4;stroke-dasharray:none"
     d="M 263.05521,336.57093 L 263.05521,294.57093 L 242.05521,294.57093 L 242.05521,315.57093 L 116.05521,315.57093 L 116.05521,294.57093 L 95.05521,294.57093 L 95.05521,336.57093 L 116.05521,336.57093 L 116.05521,357.57093 L 242.05521,357.57093 L 242.05521,336.57093 z"
     id="path3051"
     inkscape:connector-curvature="0" />
  <path
     style="color:#000000;fill:#663300;fill-opacity:1;stroke:#000000;stroke-width:2;stroke-opacity:1;marker:none;visibility:visible;display:inline;overflow:visible;enable-background:accumulate;stroke-miterlimit:4;stroke-dasharray:none"
     d="M 242.05521,273.57093 L 242.05521,231.57093 L 263.05521,231.57093 L 263.05521,294.57093 L 242.05521,294.57093 L 242.05521,315.57093 L 116.05521,315.57093 L 116.05521,294.57093 L 95.05521,294.57093 L 95.05521,231.57093 L 116.05521,231.57093 L 116.05521,273.57093 z"
     id="path3053"
     inkscape:connector-curvature="0" />
  <path
     style="color:#000000;fill:#006600;fill-opacity:1;stroke:#000000;stroke-width:2;stroke-opacity:1;marker:none;visibility:visible;display:inline;overflow:visible;enable-background:accumulate;stroke-miterlimit:4;stroke-dasharray:none"
     d="M 221.05521,252.57093 L 200.05521,252.57093 L 200.05521,273.57093 L 221.05521,273.57093 z"
     id="path3055"
     inkscape:connector-curvature="0" />
  <path
     style="color:#000000;fill:#663300;fill-opacity:1;stroke:#000000;stroke-width:2;stroke-opacity:1;marker:none;visibility:visible;display:inline;overflow:visible;enable-background:accumulate;stroke-miterlimit:4;stroke-dasharray:none"
     d="M 137.05521,252.57093 L 137.05521,231.57093 L 158.05521,231.57093 L 158.05521,252.57093 z"
     id="path3059"
     inkscape:connector-curvature="0" />
  <path
     style="color:#000000;fill:#006600;fill-opacity:1;stroke:#000000;stroke-width:2;stroke-opacity:1;marker:none;visibility:visible;display:inline;overflow:visible;enable-background:accumulate;stroke-miterlimit:4;stroke-dasharray:none"
     d="M 158.05521,252.57093 L 137.05521,252.57093 L 137.05521,273.57093 L 158.05521,273.57093 z"
     id="path3057"
     inkscape:connector-curvature="0" />
  <path
     style="color:#000000;fill:#663300;fill-opacity:1;stroke:#000000;stroke-width:2;stroke-opacity:1;marker:none;visibility:visible;display:inline;overflow:visible;enable-background:accumulate;stroke-miterlimit:4;stroke-dasharray:none"
     d="M 200.05521,231.57093 L 221.05521,231.57093 L 221.05521,252.57093 L 200.05521,252.57093 z"
     id="path3061"
     inkscape:connector-curvature="0" />
  <path
     style="color:#000000;fill:#006600;fill-opacity:1;stroke:#000000;stroke-width:2;stroke-opacity:1;marker:none;visibility:visible;display:inline;overflow:visible;enable-background:accumulate;stroke-miterlimit:4;stroke-dasharray:none"
     d="M 242.05521,210.57093 L 263.05521,210.57093 L 263.05521,189.57093 L 242.05521,189.57093 z"
     id="path3065"
     inkscape:connector-curvature="0" />
  <path
     style="color:#000000;fill:#663300;fill-opacity:1;stroke:#000000;stroke-width:2;stroke-opacity:1;marker:none;visibility:visible;display:inline;overflow:visible;enable-background:accumulate;stroke-miterlimit:4;stroke-dasharray:none"
     d="M 200.05521,210.57093 L 200.05521,189.57093 L 158.05521,189.57093 L 158.05521,210.57093 z"
     id="path3063"
     inkscape:connector-curvature="0" />
  <path
     style="color:#000000;fill:#006600;fill-opacity:1;stroke:#000000;stroke-width:2;stroke-opacity:1;marker:none;visibility:visible;display:inline;overflow:visible;enable-background:accumulate;stroke-miterlimit:4;stroke-dasharray:none"
     d="M 74.05521,84.57093 L 74.05521,189.57093 L 95.05521,189.57093 L 95.05521,210.57093 L 116.05521,210.57093 L 116.05521,189.57093 L 137.05521,189.57093 L 137.05521,168.57093 L 179.05521,168.57093 L 179.05521,63.57093 L 116.05521,63.57093 L 116.05521,84.57093 z"
     id="path3077"
     inkscape:connector-curvature="0" />
  <path
     style="color:#000000;fill:#663300;fill-opacity:1;stroke:#000000;stroke-width:2;stroke-opacity:1;marker:none;visibility:visible;display:inline;overflow:visible;enable-background:accumulate;stroke-miterlimit:4;stroke-dasharray:none"
     d="M 305.05521,189.57093 L 305.05521,168.57093 L 326.05521,168.57093 L 326.05521,63.57093 L 200.05521,63.57093 L 200.05521,147.57093 L 179.05521,147.57093 L 179.05521,168.57093 L 200.05521,168.57093 L 200.05521,189.57093 z"
     id="path3067"
     inkscape:connector-curvature="0" />
  <path
     style="color:#000000;fill:#663300;fill-opacity:1;stroke:#000000;stroke-width:2;stroke-opacity:1;marker:none;visibility:visible;display:inline;overflow:visible;enable-background:accumulate;stroke-miterlimit:4;stroke-dasharray:none"
     d="M 95.05521,210.57093 L 95.05521,189.57093 L 53.05521,189.57093 L 53.05521,231.57093 L 74.05521,231.57093 L 74.05521,210.57093 z"
     id="path3069"
     inkscape:connector-curvature="0" />
  <path
     style="color:#000000;fill:#663300;fill-opacity:1;stroke:#000000;stroke-width:2;stroke-opacity:1;marker:none;visibility:visible;display:inline;overflow:visible;enable-background:accumulate;stroke-miterlimit:4;stroke-dasharray:none"
     d="M 74.05521,126.57093 L 74.05521,147.57093 L 95.05521,147.57093 L 95.05521,126.57093 z"
     id="path3071"
     inkscape:connector-curvature="0" />
  <path
     style="color:#000000;fill:#663300;fill-opacity:1;stroke:#000000;stroke-width:2;stroke-opacity:1;marker:none;visibility:visible;display:inline;overflow:visible;enable-background:accumulate;stroke-miterlimit:4;stroke-dasharray:none"
     d="M 95.05521,105.57093 L 95.05521,126.57093 L 137.05521,126.57093 L 137.05521,147.57093 L 179.05521,147.57093 L 179.05521,126.57093 L 158.05521,126.57093 L 158.05521,105.57093 L 179.05521,105.57093 L 179.05521,84.57093 L 137.05521,84.57093 L 137.05521,105.57093 z"
     id="path3073"
     inkscape:connector-curvature="0" />
  <path
     style="color:#000000;fill:#663300;fill-opacity:1;stroke:#000000;stroke-width:2;stroke-opacity:1;marker:none;visibility:visible;display:inline;overflow:visible;enable-background:accumulate;stroke-miterlimit:4;stroke-dasharray:none"
     d="M 95.05521,21.57093 L 95.05521,84.57093 L 116.05521,84.57093 L 116.05521,63.57093 L 158.05521,63.57093 L 158.05521,21.57093 z"
     id="path3075"
     inkscape:connector-curvature="0" />
  <path
     style="color:#000000;fill:#ffff00;fill-opacity:1;stroke:#000000;stroke-width:2;stroke-opacity:1;marker:none;visibility:visible;display:inline;overflow:visible;enable-background:accumulate;stroke-miterlimit:4;stroke-dasharray:none"
     d="M 284.05521,168.57093 L 284.05521,147.57093 L 305.05521,147.57093 L 305.05521,126.57093 L 284.05521,126.57093 L 284.05521,84.57093 L 263.05521,84.57093 L 263.05521,126.57093 L 242.05521,126.57093 L 242.05521,147.57093 L 263.05521,147.57093 L 263.05521,168.57093 z"
     id="path3849"
     inkscape:connector-curvature="0" />
  <rect
     style="color:#000000;fill:none;stroke:#000000;stroke-width:10.23952007;stroke-linecap:butt;stroke-linejoin:miter;stroke-miterlimit:4;stroke-opacity:1;stroke-dasharray:none;stroke-dashoffset:0;marker:none;visibility:visible;display:inline;overflow:visible;enable-background:accumulate"
     id="UnitRectangle"
     width="3071.8557"
     height="3071.8557"
     x="192.68156"
     y="-2887.4136" />
</svg>
