<?xml version="1.0" encoding="UTF-8" standalone="no"?>
<!-- Created with Inkscape (http://www.inkscape.org/) -->

<svg xmlns:dc="http://purl.org/dc/elements/1.1/" xmlns:cc="http://creativecommons.org/ns#" xmlns:rdf="http://www.w3.org/1999/02/22-rdf-syntax-ns#" xmlns:svg="http://www.w3.org/2000/svg" xmlns="http://www.w3.org/2000/svg" xmlns:sodipodi="http://sodipodi.sourceforge.net/DTD/sodipodi-0.dtd" xmlns:inkscape="http://www.inkscape.org/namespaces/inkscape" id="svg4043" version="1.1" inkscape:version="0.48.3.1 r9886" width="990" height="765" sodipodi:docname="jumper.svg">
  <metadata id="metadata4049">
    <rdf:RDF>
      <cc:Work rdf:about="">
        <dc:format>image/svg+xml</dc:format>
        <dc:type rdf:resource="http://purl.org/dc/dcmitype/StillImage" />
        <dc:title />
      </cc:Work>
    </rdf:RDF>
  </metadata>
  <defs id="defs4047" />
  <sodipodi:namedview pagecolor="#ffffff" bordercolor="#666666" borderopacity="1" objecttolerance="10" gridtolerance="10" guidetolerance="10" inkscape:pageopacity="0" inkscape:pageshadow="2" inkscape:window-width="1434" inkscape:window-height="846" id="namedview4045" showgrid="true" inkscape:zoom="0.24826388999461" inkscape:cx="400.50180977642" inkscape:cy="552.0396746213" inkscape:window-x="0" inkscape:window-y="0" inkscape:window-maximized="0" inkscape:current-layer="svg4043">
    <inkscape:grid type="xygrid" id="grid3610" empspacing="5" visible="true" enabled="false" snapvisiblegridlinesonly="true" spacingx="4.5px" spacingy="4.5px" originx="0.4px" />
  </sodipodi:namedview>
  <path style="color:#000000;fill:#ad7b00;fill-opacity:1;fill-rule:nonzero;stroke:none;stroke-width:2;marker:none;visibility:visible;display:inline;overflow:visible;enable-background:accumulate" d="M 300.57521766562,187.40201657565 L 53.075217665624,187.40201657565 L 53.075217665624,209.90201657565 L 30.575217665624,209.90201657565 L 30.575217665624,232.40201657565 L 53.075217665624,232.40201657565 L 53.075217665624,254.90201657565 L 98.075217665624,254.90201657565 L 98.075217665624,277.40201657565 L 75.575217665624,277.40201657565 L 75.575217665624,299.90201657565 L 53.075217665624,299.90201657565 L 53.075217665624,322.40201657565 L 30.575217665624,322.40201657565 L 30.575217665624,367.40201657565 L 53.075217665624,367.40201657565 L 53.075217665624,344.90201657565 L 98.075217665624,344.90201657565 L 98.075217665624,367.40201657565 L 188.07521766562,367.40201657565 L 188.07521766562,344.90201657565 L 255.57521766562,344.90201657565 L 255.57521766562,322.40201657565 L 368.07521766562,322.40201657565 L 368.07521766562,209.90201657565 L 345.57521766562,209.90201657565 L 345.57521766562,254.90201657565 L 300.57521766562,254.90201657565 z" id="path4433" inkscape:connector-curvature="0" />
  <path style="color:#000000;fill:#ffa542;fill-opacity:1;stroke:none;stroke-width:2;marker:none;visibility:visible;display:inline;overflow:visible;enable-background:accumulate" d="M 120.57521766562,97.402016575649 L 120.57521766562,142.40201657565 L 143.07521766562,142.40201657565 L 143.07521766562,187.40201657565 L 300.57521766562,187.40201657565 L 300.57521766562,142.40201657565 L 345.57521766562,142.40201657565 L 345.57521766562,119.90201657565 L 300.57521766562,119.90201657565 L 300.57521766562,97.402016575649 L 278.07521766562,97.402016575649 L 278.07521766562,74.902016575649 L 188.07521766562,74.902016575649 L 188.07521766562,97.402016575649 z" id="path3614" inkscape:connector-curvature="0" />
  <path style="color:#000000;fill:#ffa542;fill-opacity:1;stroke:none;stroke-width:2;marker:none;visibility:visible;display:inline;overflow:visible;enable-background:accumulate" d="M 323.07521766562,74.902016575649 L 368.07521766562,74.902016575649 L 368.07521766562,7.4020165756494 L 300.57521766562,7.4020165756494 L 300.57521766562,52.402016575649 L 323.07521766562,52.402016575649 z" id="path3616" inkscape:connector-curvature="0" />
  <path style="color:#000000;fill:#ffa542;fill-opacity:1;stroke:none;stroke-width:2;marker:none;visibility:visible;display:inline;overflow:visible;enable-background:accumulate" d="M 53.075217665624,232.40201657565 L 8.0752176656238,232.40201657565 L 8.0752176656238,277.40201657565 L 30.575217665624,277.40201657565 L 30.575217665624,299.90201657565 L 53.075217665624,299.90201657565 L 53.075217665624,277.40201657565 L 75.575217665624,277.40201657565 L 75.575217665624,254.90201657565 L 53.075217665624,254.90201657565 z" id="path3618" inkscape:connector-curvature="0" />
  <path style="color:#000000;fill:#ad7b00;fill-opacity:1;stroke:none;stroke-width:2;marker:none;visibility:visible;display:inline;overflow:visible;enable-background:accumulate" d="M 143.07521766562,164.90201657565 L 98.075217665624,164.90201657565 L 98.075217665624,97.402016575649 L 120.57521766562,97.402016575649 L 120.57521766562,142.40201657565 L 143.07521766562,142.40201657565 z" id="path4388" inkscape:connector-curvature="0" />
  <path style="color:#000000;fill:#ad7b00;fill-opacity:1;fill-rule:nonzero;stroke:none;stroke-width:2;marker:none;visibility:visible;display:inline;overflow:visible;enable-background:accumulate" d="M 120.57521766562,74.902016575649 L 120.57521766562,97.402016575649 L 143.07521766562,97.402016575649 L 143.07521766562,142.40201657565 L 188.07521766562,142.40201657565 L 188.07521766562,119.90201657565 L 165.57521766562,119.90201657565 L 165.57521766562,97.402016575649 L 188.07521766562,97.402016575649 L 188.07521766562,74.902016575649 z" id="path4401" inkscape:connector-curvature="0" />
  <path style="color:#000000;fill:#ad7b00;fill-opacity:1;fill-rule:nonzero;stroke:none;stroke-width:2;marker:none;visibility:visible;display:inline;overflow:visible;enable-background:accumulate" d="M 233.07521766562,74.902016575649 L 233.07521766562,119.90201657565 L 255.57521766562,119.90201657565 L 255.57521766562,74.902016575649 z" id="path4409" inkscape:connector-curvature="0" />
  <path style="color:#000000;fill:#ad7b00;fill-opacity:1;fill-rule:nonzero;stroke:none;stroke-width:2;marker:none;visibility:visible;display:inline;overflow:visible;enable-background:accumulate" d="M 255.57521766562,119.90201657565 L 255.57521766562,142.40201657565 L 233.07521766562,142.40201657565 L 233.07521766562,164.90201657565 L 300.57521766562,164.90201657565 L 300.57521766562,187.40201657565 L 323.07521766562,187.40201657565 L 323.07521766562,164.90201657565 L 345.57521766562,164.90201657565 L 345.57521766562,142.40201657565 L 278.07521766562,142.40201657565 L 278.07521766562,119.90201657565 z" id="path4417" inkscape:connector-curvature="0" />
  <path style="color:#000000;fill:#ad7b00;fill-opacity:1;fill-rule:nonzero;stroke:none;stroke-width:2;marker:none;visibility:visible;display:inline;overflow:visible;enable-background:accumulate" d="M 300.57521766562,74.902016575649 L 300.57521766562,119.90201657565 L 345.57521766562,119.90201657565 L 345.57521766562,142.40201657565 L 368.07521766562,142.40201657565 L 368.07521766562,74.902016575649 z" id="path4425" inkscape:connector-curvature="0" />
  <path style="color:#000000;fill:#ff3900;fill-opacity:1;stroke:none;stroke-width:2;marker:none;visibility:visible;display:inline;overflow:visible;enable-background:accumulate" d="M 188.07521766562,209.90201657565 L 188.07521766562,187.40201657565 L 165.57521766562,187.40201657565 L 165.57521766562,209.90201657565 z" id="path4441" inkscape:connector-curvature="0" />
  <path style="color:#000000;fill:#ff3900;fill-opacity:1;fill-rule:nonzero;stroke:none;stroke-width:2;marker:none;visibility:visible;display:inline;overflow:visible;enable-background:accumulate" d="M 255.57521766562,187.40201657565 L 255.57521766562,209.90201657565 L 278.07521766562,209.90201657565 L 278.07521766562,187.40201657565 z" id="path4454" inkscape:connector-curvature="0" />
  <path style="color:#000000;fill:#ff3900;fill-opacity:1;fill-rule:nonzero;stroke:none;stroke-width:2;marker:none;visibility:visible;display:inline;overflow:visible;enable-background:accumulate" d="M 300.57521766562,209.90201657565 L 278.07521766562,209.90201657565 L 278.07521766562,232.40201657565 L 210.57521766562,232.40201657565 L 210.57521766562,209.90201657565 L 188.07521766562,209.90201657565 L 188.07521766562,254.90201657565 L 165.57521766562,254.90201657565 L 165.57521766562,277.40201657565 L 143.07521766562,277.40201657565 L 143.07521766562,254.90201657565 L 98.075217665624,254.90201657565 L 98.075217665624,299.90201657565 L 120.57521766562,299.90201657565 L 120.57521766562,322.40201657565 L 98.075217665624,322.40201657565 L 98.075217665624,367.40201657565 L 188.07521766562,367.40201657565 L 188.07521766562,344.90201657565 L 255.57521766562,344.90201657565 L 255.57521766562,322.40201657565 L 323.07521766562,322.40201657565 L 323.07521766562,254.90201657565 L 300.57521766562,254.90201657565 z" id="path4462" inkscape:connector-curvature="0" />
  <path style="color:#000000;fill:#ff3900;fill-opacity:1;fill-rule:nonzero;stroke:none;stroke-width:2;marker:none;visibility:visible;display:inline;overflow:visible;enable-background:accumulate" d="M 323.07521766562,74.902016575649 L 323.07521766562,52.402016575649 L 255.57521766562,52.402016575649 L 255.57521766562,29.902016575649 L 143.07521766562,29.902016575649 L 143.07521766562,52.402016575649 L 120.57521766562,52.402016575649 L 120.57521766562,74.902016575649 z" id="path4470" inkscape:connector-curvature="0" />
  <rect style="color:#000000;fill:none;stroke:#000000;stroke-width:2;stroke-linecap:butt;stroke-linejoin:miter;stroke-miterlimit:4;stroke-opacity:1;stroke-dasharray:none;stroke-dashoffset:0;marker:none;visibility:visible;display:inline;overflow:visible;enable-background:accumulate" id="UnitRectangle" width="572.85729980469" height="572.85711669922" x="213.03985595703" y="-351.19082641602" />
</svg>
