<?xml version="1.0" encoding="UTF-8" standalone="no"?>
<!-- Created with Inkscape (http://www.inkscape.org/) -->

<svg xmlns:dc="http://purl.org/dc/elements/1.1/" xmlns:cc="http://creativecommons.org/ns#" xmlns:rdf="http://www.w3.org/1999/02/22-rdf-syntax-ns#" xmlns:svg="http://www.w3.org/2000/svg" xmlns="http://www.w3.org/2000/svg" xmlns:sodipodi="http://sodipodi.sourceforge.net/DTD/sodipodi-0.dtd" xmlns:inkscape="http://www.inkscape.org/namespaces/inkscape" width="744.09448819" height="1052.3622047" id="svg11727" version="1.1" inkscape:version="0.48.3.1 r9886" sodipodi:docname="stander.svg">
  <defs id="defs11729" />
  <sodipodi:namedview id="base" pagecolor="#ffffff" bordercolor="#666666" borderopacity="1.0" inkscape:pageopacity="0.0" inkscape:pageshadow="2" inkscape:zoom="0.35" inkscape:cx="197.95" inkscape:cy="767" inkscape:document-units="px" inkscape:current-layer="layer1" showgrid="false" />
  <metadata id="metadata11732">
    <rdf:RDF>
      <cc:Work rdf:about="">
        <dc:format>image/svg+xml</dc:format>
        <dc:type rdf:resource="http://purl.org/dc/dcmitype/StillImage" />
        <dc:title></dc:title>
      </cc:Work>
    </rdf:RDF>
  </metadata>
  <g inkscape:label="Layer 1" inkscape:groupmode="layer" id="layer1">
    <path style="color:#000000;fill:#ad7b00;fill-opacity:1;fill-rule:nonzero;stroke:none;stroke-width:2;marker:none;visibility:visible;display:inline;overflow:visible;enable-background:accumulate" d="M 55.714285714289,167.00503976005 L 190.71428571429,167.00503976005 L 190.71428571429,189.50503976005 L 258.21428571429,189.50503976005 L 258.21428571429,212.00503976005 L 280.71428571429,212.00503976005 L 280.71428571429,234.50503976005 L 235.71428571429,234.50503976005 L 235.71428571429,324.50503976005 L 258.21428571429,324.50503976005 L 258.21428571429,347.00503976005 L 280.71428571429,347.00503976005 L 280.71428571429,369.50503976003 L 190.71428571429,369.50503976003 L 190.71428571429,324.50503976005 L 168.21428571429,324.50503976005 L 168.21428571429,302.00503976005 L 123.21428571429,302.00503976005 L 123.21428571429,324.50503976005 L 100.71428571429,324.50503976005 L 100.71428571429,369.50503976003 L 10.714285714289,369.50503976003 L 10.714285714289,347.00503976005 L 33.214285714289,347.00503976005 L 33.214285714289,324.50503976005 L 55.714285714289,324.50503976005 L 55.714285714289,234.50503976005 L 10.714285714289,234.50503976005 L 10.714285714289,212.00503976005 L 33.214285714289,212.00503976005 L 33.214285714289,189.50503976005 L 55.714285714289,189.50503976005 z" id="path4620" inkscape:connector-curvature="0" />
    <path style="color:#000000;fill:#ffa542;fill-opacity:1;fill-rule:nonzero;stroke:none;stroke-width:2;marker:none;visibility:visible;display:inline;overflow:visible;enable-background:accumulate" d="M 78.214285714289,167.00503976005 L 235.71428571429,167.00503976005 L 235.71428571429,122.00503976005 L 280.71428571429,122.00503976005 L 280.71428571429,99.505039760048 L 258.21428571429,99.505039760048 L 258.21428571429,77.005039760048 L 213.21428571429,77.005039760048 L 213.21428571429,54.505039760048 L 123.21428571429,54.505039760048 L 123.21428571429,77.005039760048 L 100.71428571429,77.005039760048 L 100.71428571429,99.505039760048 L 123.21428571429,99.505039760048 L 123.21428571429,122.00503976005 L 78.214285714289,122.00503976005 z" id="path4534" inkscape:connector-curvature="0" />
    <path style="color:#000000;fill:#ff3900;fill-opacity:1;fill-rule:nonzero;stroke:none;stroke-width:2;marker:none;visibility:visible;display:inline;overflow:visible;enable-background:accumulate" d="M 100.71428571429,167.00503976005 L 100.71428571429,234.50503976005 L 78.214285714289,234.50503976005 L 78.214285714289,279.50503976005 L 55.714285714289,279.50503976005 L 55.714285714289,324.50503976005 L 123.21428571429,324.50503976005 L 123.21428571429,302.00503976005 L 168.21428571429,302.00503976005 L 168.21428571429,324.50503976005 L 235.71428571429,324.50503976005 L 235.71428571429,279.50503976005 L 213.21428571429,279.50503976005 L 213.21428571429,234.50503976005 L 190.71428571429,234.50503976005 L 190.71428571429,189.50503976005 L 168.21428571429,189.50503976005 L 168.21428571429,212.00503976005 L 123.21428571429,212.00503976005 L 123.21428571429,167.00503976005 z" id="path4561" inkscape:connector-curvature="0" />
    <path style="color:#000000;fill:#ff3900;fill-opacity:1;fill-rule:nonzero;stroke:none;stroke-width:2;marker:none;visibility:visible;display:inline;overflow:visible;enable-background:accumulate" d="M 55.714285714289,54.505039760048 L 258.21428571429,54.505039760048 L 258.21428571429,32.005039760048 L 190.71428571429,32.005039760048 L 190.71428571429,9.5050397600485 L 78.214285714289,9.5050397600485 L 78.214285714289,32.005039760048 L 55.714285714289,32.005039760048 z" id="path4569" inkscape:connector-curvature="0" />
    <path style="color:#000000;fill:#ffa542;fill-opacity:1;fill-rule:nonzero;stroke:none;stroke-width:2;marker:none;visibility:visible;display:inline;overflow:visible;enable-background:accumulate" d="M 10.714285714289,302.00503976005 L 55.714285714289,302.00503976005 L 55.714285714289,279.50503976005 L 78.214285714289,279.50503976005 L 78.214285714289,257.00503976005 L 55.714285714289,257.00503976005 L 55.714285714289,234.50503976005 L 10.714285714289,234.50503976005 z" id="path4502" inkscape:connector-curvature="0" />
    <path style="color:#000000;fill:#ffa542;fill-opacity:1;fill-rule:nonzero;stroke:none;stroke-width:2;marker:none;visibility:visible;display:inline;overflow:visible;enable-background:accumulate" d="M 100.71428571429,234.50503976005 L 100.71428571429,257.00503976005 L 123.21428571429,257.00503976005 L 123.21428571429,234.50503976005 z" id="path4510" inkscape:connector-curvature="0" />
    <path style="color:#000000;fill:#ffa542;fill-opacity:1;fill-rule:nonzero;stroke:none;stroke-width:2;marker:none;visibility:visible;display:inline;overflow:visible;enable-background:accumulate" d="M 168.21428571429,234.50503976005 L 168.21428571429,257.00503976005 L 190.71428571429,257.00503976005 L 190.71428571429,234.50503976005 z" id="path4518" inkscape:connector-curvature="0" />
    <path style="color:#000000;fill:#ffa542;fill-opacity:1;fill-rule:nonzero;stroke:none;stroke-width:2;marker:none;visibility:visible;display:inline;overflow:visible;enable-background:accumulate" d="M 280.71428571429,302.00503976005 L 280.71428571429,234.50503976005 L 235.71428571429,234.50503976005 L 235.71428571429,257.00503976005 L 213.21428571429,257.00503976005 L 213.21428571429,279.50503976005 L 235.71428571429,279.50503976005 L 235.71428571429,302.00503976005 z" id="path4526" inkscape:connector-curvature="0" />
    <path style="color:#000000;fill:#ffa542;fill-opacity:1;fill-rule:nonzero;stroke:none;stroke-width:2;marker:none;visibility:visible;display:inline;overflow:visible;enable-background:accumulate" d="M 55.714285714289,122.00503976005 L 55.714285714289,77.005039760048 L 78.214285714289,77.005039760048 L 78.214285714289,122.00503976005 z" id="path4542" inkscape:connector-curvature="0" />
    <path style="color:#000000;fill:#ad7b00;fill-opacity:1;fill-rule:nonzero;stroke:none;stroke-width:2;marker:none;visibility:visible;display:inline;overflow:visible;enable-background:accumulate" d="M 258.21428571429,144.50503976005 L 258.21428571429,122.00503976005 L 213.21428571429,122.00503976005 L 213.21428571429,99.505039760048 L 190.71428571429,99.505039760048 L 190.71428571429,122.00503976005 L 168.21428571429,122.00503976005 L 168.21428571429,144.50503976005 z" id="path4588" inkscape:connector-curvature="0" />
    <path style="color:#000000;fill:#ad7b00;fill-opacity:1;fill-rule:nonzero;stroke:none;stroke-width:2;marker:none;visibility:visible;display:inline;overflow:visible;enable-background:accumulate" d="M 168.21428571429,54.505039760048 L 168.21428571429,99.505039760048 L 190.71428571429,99.505039760048 L 190.71428571429,54.505039760048 z" id="path4596" inkscape:connector-curvature="0" />
    <path style="color:#000000;fill:#ad7b00;fill-opacity:1;fill-rule:nonzero;stroke:none;stroke-width:2;marker:none;visibility:visible;display:inline;overflow:visible;enable-background:accumulate" d="M 123.21428571429,54.505039760048 L 123.21428571429,77.005039760048 L 100.71428571429,77.005039760048 L 100.71428571429,99.505039760048 L 123.21428571429,99.505039760048 L 123.21428571429,122.00503976005 L 78.214285714289,122.00503976005 L 78.214285714289,77.005039760048 L 55.714285714289,77.005039760048 L 55.714285714289,54.505039760048 z" id="path4604" inkscape:connector-curvature="0" />
    <path style="color:#000000;fill:#ad7b00;fill-opacity:1;fill-rule:nonzero;stroke:none;stroke-width:2;marker:none;visibility:visible;display:inline;overflow:visible;enable-background:accumulate" d="M 33.214285714289,77.005039760048 L 33.214285714289,144.50503976005 L 78.214285714289,144.50503976005 L 78.214285714289,122.00503976005 L 55.714285714289,122.00503976005 L 55.714285714289,77.005039760048 z" id="path4612" inkscape:connector-curvature="0" />
    <rect style="color:#000000;fill:none;stroke:#000000;stroke-width:2;stroke-linecap:butt;stroke-linejoin:miter;stroke-miterlimit:4;stroke-opacity:1;stroke-dasharray:none;stroke-dashoffset:0;marker:none;visibility:visible;display:inline;overflow:visible;enable-background:accumulate" id="UnitRectangle" width="572.85729980469" height="572.85711669922" x="150.00001525879" y="-363.35211181641" />
  </g>
</svg>
